<svg version="1.1" 
 baseProfile="full" 
 width="1000" height="1000" 
 xmlns="http://www.w3.org/2000/svg">
<rect width="100%" height="100%" fill="red" />
<polygon points="799.211,425.103 796.849,450.108 792.922,474.915 787.446,499.427 780.442,523.546 771.939,547.179 761.969,570.231 750.572,592.612 737.793,614.234 723.682,635.011 708.295,654.862 691.692,673.707 673.94,691.474 655.107,708.092 635.269,723.494 614.503,737.622 592.891,750.418 570.519,761.833 547.475,771.821 523.849,780.344 499.735,787.367 475.228,792.862 450.424,796.809 425.421,799.191 400.319,800 375.214,799.231 350.208,796.889 325.398,792.982 300.882,787.525 276.757,780.541 253.117,772.056 230.057,762.104 207.667,750.725 186.035,737.963 165.247,723.869 145.384,708.497 126.525,691.91 108.744,674.172 92.1117,655.352 76.693,635.526 62.549,614.772 49.7354,593.17 38.3028,570.807 28.2961,547.771 19.755,524.152 12.7129,500.044 7.19775,475.541 3.23123,450.74 0.828996,425.739 0.000507309,400.637 0.749034,375.532 3.07163,350.524 6.95912,325.711 12.3962,301.191 19.3614,277.06 27.8273,253.414 37.7606,230.346 49.1219,207.946 61.8666,186.304 75.9444,165.505 91.2999,145.63 107.872,126.758 125.597,108.963 144.403,92.3151 164.216,76.8807 184.96,62.7202 206.551,49.8894 228.905,38.4389 251.933,28.4139 275.545,19.8539 299.648,12.7927 324.147,7.25803 348.944,3.27177 373.943,0.84962 399.044,0.00114144 424.15,0.729676 449.16,3.03235 473.976,6.90009 498.501,12.3176 522.637,19.2636 546.29,27.7107 569.366,37.6256 591.774,48.9691 613.426,61.6966 634.237,75.7578 654.124,91.0974 673.01,107.655 690.819,125.365 707.481,144.158 722.931,163.959 737.108,184.691 749.956,206.272 761.425,228.617 771.468,251.637 780.047,275.243 787.127,299.34 792.681,323.834 796.687,348.628 799.13,373.625 799.998,398.726 " style="fill:blue;stroke:pink;stroke-width:5" /> 
</svg>