<svg version="1.1" 
 baseProfile="full" 
 width="1000" height="1000" 
 xmlns="http://www.w3.org/2000/svg">
 <polygon points="500,0 0,866.025 1000,866.025" fill="red"/> 
<polygon points="599.803,206.276 599.212,212.527 598.231,218.729 596.861,224.857 595.111,230.887 592.985,236.795 590.492,242.558 587.643,248.153 584.448,253.558 580.92,258.753 577.074,263.715 572.923,268.427 568.485,272.869 563.777,277.023 558.817,280.874 553.626,284.405 548.223,287.605 542.63,290.458 536.869,292.955 530.962,295.086 524.934,296.842 518.807,298.216 512.606,299.202 506.355,299.798 500.08,300 493.804,299.808 487.552,299.222 481.349,298.245 475.22,296.881 469.189,295.135 463.279,293.014 457.514,290.526 451.917,287.681 446.509,284.491 441.312,280.967 436.346,277.124 431.631,272.977 427.186,268.543 423.028,263.838 419.173,258.882 415.637,253.693 412.434,248.293 409.576,242.702 407.074,236.943 404.939,231.038 403.178,225.011 401.799,218.885 400.808,212.685 400.207,206.435 400,200.159 400.187,193.883 400.768,187.631 401.74,181.428 403.099,175.298 404.84,169.265 406.957,163.353 409.44,157.586 412.28,151.987 415.467,146.576 418.986,141.376 422.825,136.407 426.968,131.689 431.399,127.241 436.101,123.079 441.054,119.22 446.24,115.68 451.638,112.472 457.226,109.61 462.983,107.103 468.886,104.963 474.912,103.198 481.037,101.815 487.236,100.818 493.486,100.212 499.761,100 506.037,100.182 512.29,100.758 518.494,101.725 524.625,103.079 530.659,104.816 536.572,106.928 542.341,109.406 547.944,112.242 553.357,115.424 558.559,118.939 563.531,122.774 568.252,126.914 572.705,131.341 576.87,136.039 580.733,140.99 584.277,146.173 587.489,151.568 590.356,157.154 592.867,162.909 595.012,168.811 596.782,174.835 598.17,180.958 599.172,187.157 599.782,193.406 599.999,199.681 " style="fill:blue;stroke:pink;stroke-width:5" /> 
<polygon points="499.803,379.481 499.212,385.732 498.231,391.934 496.861,398.062 495.111,404.092 492.985,410 490.492,415.763 487.643,421.358 484.448,426.764 480.92,431.958 477.074,436.92 472.923,441.632 468.485,446.074 463.777,450.228 458.817,454.079 453.626,457.611 448.223,460.81 442.63,463.663 436.869,466.16 430.962,468.291 424.934,470.047 418.807,471.421 412.606,472.407 406.355,473.003 400.08,473.205 393.804,473.013 387.552,472.427 381.349,471.45 375.22,470.086 369.189,468.34 363.279,466.219 357.514,463.731 351.917,460.886 346.509,457.696 341.312,454.172 336.346,450.329 331.631,446.183 327.186,441.748 323.028,437.043 319.173,432.087 315.637,426.898 312.434,421.498 309.576,415.907 307.074,410.148 304.939,404.243 303.178,398.216 301.799,392.09 300.808,385.89 300.207,379.64 300,373.364 300.187,367.088 300.768,360.836 301.74,354.633 303.099,348.503 304.84,342.47 306.957,336.559 309.44,330.792 312.28,325.192 315.467,319.781 318.986,314.581 322.825,309.613 326.968,304.894 331.399,300.446 336.101,296.284 341.054,292.425 346.24,288.885 351.638,285.677 357.226,282.815 362.983,280.309 368.886,278.169 374.912,276.403 381.037,275.02 387.236,274.023 393.486,273.417 399.761,273.205 406.037,273.387 412.29,273.963 418.494,274.93 424.625,276.284 430.659,278.021 436.572,280.133 442.341,282.611 447.944,285.447 453.357,288.629 458.559,292.145 463.531,295.979 468.252,300.119 472.705,304.546 476.87,309.245 480.733,314.195 484.277,319.378 487.489,324.773 490.356,330.359 492.867,336.114 495.012,342.016 496.782,348.04 498.17,354.164 499.172,360.362 499.782,366.611 499.999,372.887 " style="fill:blue;stroke:pink;stroke-width:5" /> 
<polygon points="699.803,379.481 699.212,385.732 698.231,391.934 696.861,398.062 695.111,404.092 692.985,410 690.492,415.763 687.643,421.358 684.448,426.764 680.92,431.958 677.074,436.92 672.923,441.632 668.485,446.074 663.777,450.228 658.817,454.079 653.626,457.611 648.223,460.81 642.63,463.663 636.869,466.16 630.962,468.291 624.934,470.047 618.807,471.421 612.606,472.407 606.355,473.003 600.08,473.205 593.804,473.013 587.552,472.427 581.349,471.45 575.22,470.086 569.189,468.34 563.279,466.219 557.514,463.731 551.917,460.886 546.509,457.696 541.312,454.172 536.346,450.329 531.631,446.183 527.186,441.748 523.028,437.043 519.173,432.087 515.637,426.898 512.434,421.498 509.576,415.907 507.074,410.148 504.939,404.243 503.178,398.216 501.799,392.09 500.808,385.89 500.207,379.64 500,373.364 500.187,367.088 500.768,360.836 501.74,354.633 503.099,348.503 504.84,342.47 506.957,336.559 509.44,330.792 512.28,325.192 515.467,319.781 518.986,314.581 522.825,309.613 526.968,304.894 531.399,300.446 536.101,296.284 541.054,292.425 546.24,288.885 551.638,285.677 557.226,282.815 562.983,280.309 568.886,278.169 574.912,276.403 581.037,275.02 587.236,274.023 593.486,273.417 599.761,273.205 606.037,273.387 612.29,273.963 618.494,274.93 624.625,276.284 630.659,278.021 636.572,280.133 642.341,282.611 647.944,285.447 653.357,288.629 658.559,292.145 663.531,295.979 668.252,300.119 672.705,304.546 676.87,309.245 680.733,314.195 684.277,319.378 687.489,324.773 690.356,330.359 692.867,336.114 695.012,342.016 696.782,348.04 698.17,354.164 699.172,360.362 699.782,366.611 699.999,372.887 " style="fill:blue;stroke:pink;stroke-width:5" /> 
<polygon points="399.803,552.686 399.212,558.937 398.231,565.139 396.861,571.267 395.111,577.297 392.985,583.205 390.492,588.968 387.643,594.563 384.448,599.969 380.92,605.163 377.074,610.126 372.923,614.837 368.485,619.279 363.777,623.433 358.817,627.284 353.626,630.816 348.223,634.015 342.63,636.868 336.869,639.366 330.962,641.496 324.934,643.252 318.807,644.626 312.606,645.612 306.355,646.208 300.08,646.41 293.804,646.218 287.552,645.632 281.349,644.656 275.22,643.291 269.189,641.545 263.279,639.424 257.514,636.936 251.917,634.091 246.509,630.901 241.312,627.377 236.346,623.535 231.631,619.388 227.186,614.953 223.028,610.248 219.173,605.292 215.637,600.103 212.434,594.703 209.576,589.112 207.074,583.353 204.939,577.448 203.178,571.421 201.799,565.295 200.808,559.095 200.207,552.845 200,546.569 200.187,540.293 200.768,534.041 201.74,527.838 203.099,521.708 204.84,515.675 206.957,509.764 209.44,503.997 212.28,498.397 215.467,492.986 218.986,487.786 222.825,482.818 226.968,478.1 231.399,473.651 236.101,469.489 241.054,465.63 246.24,462.09 251.638,458.883 257.226,456.02 262.983,453.514 268.886,451.374 274.912,449.608 281.037,448.225 287.236,447.228 293.486,446.623 299.761,446.41 306.037,446.593 312.29,447.168 318.494,448.135 324.625,449.49 330.659,451.226 336.572,453.338 342.341,455.817 347.944,458.652 353.357,461.834 358.559,465.35 363.531,469.185 368.252,473.324 372.705,477.751 376.87,482.45 380.733,487.4 384.277,492.583 387.489,497.978 390.356,503.564 392.867,509.319 395.012,515.221 396.782,521.245 398.17,527.369 399.172,533.567 399.782,539.816 399.999,546.092 " style="fill:blue;stroke:pink;stroke-width:5" /> 
<polygon points="599.803,552.686 599.212,558.937 598.231,565.139 596.861,571.267 595.111,577.297 592.985,583.205 590.492,588.968 587.643,594.563 584.448,599.969 580.92,605.163 577.074,610.126 572.923,614.837 568.485,619.279 563.777,623.433 558.817,627.284 553.626,630.816 548.223,634.015 542.63,636.868 536.869,639.366 530.962,641.496 524.934,643.252 518.807,644.626 512.606,645.612 506.355,646.208 500.08,646.41 493.804,646.218 487.552,645.632 481.349,644.656 475.22,643.291 469.189,641.545 463.279,639.424 457.514,636.936 451.917,634.091 446.509,630.901 441.312,627.377 436.346,623.535 431.631,619.388 427.186,614.953 423.028,610.248 419.173,605.292 415.637,600.103 412.434,594.703 409.576,589.112 407.074,583.353 404.939,577.448 403.178,571.421 401.799,565.295 400.808,559.095 400.207,552.845 400,546.569 400.187,540.293 400.768,534.041 401.74,527.838 403.099,521.708 404.84,515.675 406.957,509.764 409.44,503.997 412.28,498.397 415.467,492.986 418.986,487.786 422.825,482.818 426.968,478.1 431.399,473.651 436.101,469.489 441.054,465.63 446.24,462.09 451.638,458.883 457.226,456.02 462.983,453.514 468.886,451.374 474.912,449.608 481.037,448.225 487.236,447.228 493.486,446.623 499.761,446.41 506.037,446.593 512.29,447.168 518.494,448.135 524.625,449.49 530.659,451.226 536.572,453.338 542.341,455.817 547.944,458.652 553.357,461.834 558.559,465.35 563.531,469.185 568.252,473.324 572.705,477.751 576.87,482.45 580.733,487.4 584.277,492.583 587.489,497.978 590.356,503.564 592.867,509.319 595.012,515.221 596.782,521.245 598.17,527.369 599.172,533.567 599.782,539.816 599.999,546.092 " style="fill:blue;stroke:pink;stroke-width:5" /> 
<polygon points="799.803,552.686 799.212,558.937 798.231,565.139 796.861,571.267 795.111,577.297 792.985,583.205 790.492,588.968 787.643,594.563 784.448,599.969 780.92,605.163 777.074,610.126 772.923,614.837 768.485,619.279 763.777,623.433 758.817,627.284 753.626,630.816 748.223,634.015 742.63,636.868 736.869,639.366 730.962,641.496 724.934,643.252 718.807,644.626 712.606,645.612 706.355,646.208 700.08,646.41 693.804,646.218 687.552,645.632 681.349,644.656 675.22,643.291 669.189,641.545 663.279,639.424 657.514,636.936 651.917,634.091 646.509,630.901 641.312,627.377 636.346,623.535 631.631,619.388 627.186,614.953 623.028,610.248 619.173,605.292 615.637,600.103 612.434,594.703 609.576,589.112 607.074,583.353 604.939,577.448 603.178,571.421 601.799,565.295 600.808,559.095 600.207,552.845 600,546.569 600.187,540.293 600.768,534.041 601.74,527.838 603.099,521.708 604.84,515.675 606.957,509.764 609.44,503.997 612.28,498.397 615.467,492.986 618.986,487.786 622.825,482.818 626.968,478.1 631.399,473.651 636.101,469.489 641.054,465.63 646.24,462.09 651.638,458.883 657.226,456.02 662.983,453.514 668.886,451.374 674.912,449.608 681.037,448.225 687.236,447.228 693.486,446.623 699.761,446.41 706.037,446.593 712.29,447.168 718.494,448.135 724.625,449.49 730.659,451.226 736.572,453.338 742.341,455.817 747.944,458.652 753.357,461.834 758.559,465.35 763.531,469.185 768.252,473.324 772.705,477.751 776.87,482.45 780.733,487.4 784.277,492.583 787.489,497.978 790.356,503.564 792.867,509.319 795.012,515.221 796.782,521.245 798.17,527.369 799.172,533.567 799.782,539.816 799.999,546.092 " style="fill:blue;stroke:pink;stroke-width:5" /> 
<polygon points="299.803,725.891 299.212,732.142 298.231,738.344 296.861,744.472 295.111,750.502 292.985,756.41 290.492,762.173 287.643,767.768 284.448,773.174 280.92,778.368 277.074,783.331 272.923,788.042 268.485,792.484 263.777,796.638 258.817,800.489 253.626,804.021 248.223,807.22 242.63,810.074 236.869,812.571 230.962,814.701 224.934,816.457 218.807,817.831 212.606,818.818 206.355,819.413 200.08,819.615 193.804,819.423 187.552,818.837 181.349,817.861 175.22,816.496 169.189,814.75 163.279,812.629 157.514,810.141 151.917,807.297 146.509,804.106 141.312,800.582 136.346,796.74 131.631,792.593 127.186,788.158 123.028,783.453 119.173,778.497 115.637,773.308 112.434,767.908 109.576,762.317 107.074,756.558 104.939,750.653 103.178,744.626 101.799,738.5 100.808,732.3 100.207,726.05 100,719.775 100.187,713.498 100.768,707.246 101.74,701.043 103.099,694.913 104.84,688.88 106.957,682.969 109.44,677.202 112.28,671.602 115.467,666.191 118.986,660.991 122.825,656.023 126.968,651.305 131.399,646.856 136.101,642.694 141.054,638.835 146.24,635.295 151.638,632.088 157.226,629.225 162.983,626.719 168.886,624.579 174.912,622.813 181.037,621.43 187.236,620.433 193.486,619.828 199.761,619.616 206.037,619.798 212.29,620.373 218.494,621.34 224.625,622.695 230.659,624.431 236.572,626.543 242.341,629.022 247.944,631.858 253.357,635.039 258.559,638.555 263.531,642.39 268.252,646.529 272.705,650.956 276.87,655.655 280.733,660.605 284.277,665.788 287.489,671.183 290.356,676.769 292.867,682.525 295.012,688.426 296.782,694.45 298.17,700.574 299.172,706.772 299.782,713.021 299.999,719.297 " style="fill:blue;stroke:pink;stroke-width:5" /> 
<polygon points="499.803,725.891 499.212,732.142 498.231,738.344 496.861,744.472 495.111,750.502 492.985,756.41 490.492,762.173 487.643,767.768 484.448,773.174 480.92,778.368 477.074,783.331 472.923,788.042 468.485,792.484 463.777,796.638 458.817,800.489 453.626,804.021 448.223,807.22 442.63,810.074 436.869,812.571 430.962,814.701 424.934,816.457 418.807,817.831 412.606,818.818 406.355,819.413 400.08,819.615 393.804,819.423 387.552,818.837 381.349,817.861 375.22,816.496 369.189,814.75 363.279,812.629 357.514,810.141 351.917,807.297 346.509,804.106 341.312,800.582 336.346,796.74 331.631,792.593 327.186,788.158 323.028,783.453 319.173,778.497 315.637,773.308 312.434,767.908 309.576,762.317 307.074,756.558 304.939,750.653 303.178,744.626 301.799,738.5 300.808,732.3 300.207,726.05 300,719.775 300.187,713.498 300.768,707.246 301.74,701.043 303.099,694.913 304.84,688.88 306.957,682.969 309.44,677.202 312.28,671.602 315.467,666.191 318.986,660.991 322.825,656.023 326.968,651.305 331.399,646.856 336.101,642.694 341.054,638.835 346.24,635.295 351.638,632.088 357.226,629.225 362.983,626.719 368.886,624.579 374.912,622.813 381.037,621.43 387.236,620.433 393.486,619.828 399.761,619.616 406.037,619.798 412.29,620.373 418.494,621.34 424.625,622.695 430.659,624.431 436.572,626.543 442.341,629.022 447.944,631.858 453.357,635.039 458.559,638.555 463.531,642.39 468.252,646.529 472.705,650.956 476.87,655.655 480.733,660.605 484.277,665.788 487.489,671.183 490.356,676.769 492.867,682.525 495.012,688.426 496.782,694.45 498.17,700.574 499.172,706.772 499.782,713.021 499.999,719.297 " style="fill:blue;stroke:pink;stroke-width:5" /> 
<polygon points="699.803,725.891 699.212,732.142 698.231,738.344 696.861,744.472 695.111,750.502 692.985,756.41 690.492,762.173 687.643,767.768 684.448,773.174 680.92,778.368 677.074,783.331 672.923,788.042 668.485,792.484 663.777,796.638 658.817,800.489 653.626,804.021 648.223,807.22 642.63,810.074 636.869,812.571 630.962,814.701 624.934,816.457 618.807,817.831 612.606,818.818 606.355,819.413 600.08,819.615 593.804,819.423 587.552,818.837 581.349,817.861 575.22,816.496 569.189,814.75 563.279,812.629 557.514,810.141 551.917,807.297 546.509,804.106 541.312,800.582 536.346,796.74 531.631,792.593 527.186,788.158 523.028,783.453 519.173,778.497 515.637,773.308 512.434,767.908 509.576,762.317 507.074,756.558 504.939,750.653 503.178,744.626 501.799,738.5 500.808,732.3 500.207,726.05 500,719.775 500.187,713.498 500.768,707.246 501.74,701.043 503.099,694.913 504.84,688.88 506.957,682.969 509.44,677.202 512.28,671.602 515.467,666.191 518.986,660.991 522.825,656.023 526.968,651.305 531.399,646.856 536.101,642.694 541.054,638.835 546.24,635.295 551.638,632.088 557.226,629.225 562.983,626.719 568.886,624.579 574.912,622.813 581.037,621.43 587.236,620.433 593.486,619.828 599.761,619.616 606.037,619.798 612.29,620.373 618.494,621.34 624.625,622.695 630.659,624.431 636.572,626.543 642.341,629.022 647.944,631.858 653.357,635.039 658.559,638.555 663.531,642.39 668.252,646.529 672.705,650.956 676.87,655.655 680.733,660.605 684.277,665.788 687.489,671.183 690.356,676.769 692.867,682.525 695.012,688.426 696.782,694.45 698.17,700.574 699.172,706.772 699.782,713.021 699.999,719.297 " style="fill:blue;stroke:pink;stroke-width:5" /> 
<polygon points="899.803,725.891 899.212,732.142 898.231,738.344 896.861,744.472 895.111,750.502 892.985,756.41 890.492,762.173 887.643,767.768 884.448,773.174 880.92,778.368 877.074,783.331 872.923,788.042 868.485,792.484 863.777,796.638 858.817,800.489 853.626,804.021 848.223,807.22 842.63,810.074 836.869,812.571 830.962,814.701 824.934,816.457 818.807,817.831 812.606,818.818 806.355,819.413 800.08,819.615 793.804,819.423 787.552,818.837 781.349,817.861 775.22,816.496 769.189,814.75 763.279,812.629 757.514,810.141 751.917,807.297 746.509,804.106 741.312,800.582 736.346,796.74 731.631,792.593 727.186,788.158 723.028,783.453 719.173,778.497 715.637,773.308 712.434,767.908 709.576,762.317 707.074,756.558 704.939,750.653 703.178,744.626 701.799,738.5 700.808,732.3 700.207,726.05 700,719.775 700.187,713.498 700.768,707.246 701.74,701.043 703.099,694.913 704.84,688.88 706.957,682.969 709.44,677.202 712.28,671.602 715.467,666.191 718.986,660.991 722.825,656.023 726.968,651.305 731.399,646.856 736.101,642.694 741.054,638.835 746.24,635.295 751.638,632.088 757.226,629.225 762.983,626.719 768.886,624.579 774.912,622.813 781.037,621.43 787.236,620.433 793.486,619.828 799.761,619.616 806.037,619.798 812.29,620.373 818.494,621.34 824.625,622.695 830.659,624.431 836.572,626.543 842.341,629.022 847.944,631.858 853.357,635.039 858.559,638.555 863.531,642.39 868.252,646.529 872.705,650.956 876.87,655.655 880.733,660.605 884.277,665.788 887.489,671.183 890.356,676.769 892.867,682.525 895.012,688.426 896.782,694.45 898.17,700.574 899.172,706.772 899.782,713.021 899.999,719.297 " style="fill:blue;stroke:pink;stroke-width:5" /> 
</svg>