<svg version="1.1" 
 baseProfile="full" 
 width="2000" height="2000" 
 xmlns="http://www.w3.org/2000/svg">
 <circle cx="1000" cy="1000" r="1000" fill="red" /> 
<rect x="292.893" y="292.893" width="100" height="200" fill="blue" style="fill:blue;stroke:pink;stroke-width:5"/>
<rect x="392.893" y="292.893" width="100" height="200" fill="blue" style="fill:blue;stroke:pink;stroke-width:5"/>
<rect x="492.893" y="292.893" width="100" height="200" fill="blue" style="fill:blue;stroke:pink;stroke-width:5"/>
<rect x="592.893" y="292.893" width="100" height="200" fill="blue" style="fill:blue;stroke:pink;stroke-width:5"/>
<rect x="692.893" y="292.893" width="100" height="200" fill="blue" style="fill:blue;stroke:pink;stroke-width:5"/>
<rect x="792.893" y="292.893" width="100" height="200" fill="blue" style="fill:blue;stroke:pink;stroke-width:5"/>
<rect x="892.893" y="292.893" width="100" height="200" fill="blue" style="fill:blue;stroke:pink;stroke-width:5"/>
<rect x="992.893" y="292.893" width="100" height="200" fill="blue" style="fill:blue;stroke:pink;stroke-width:5"/>
<rect x="1092.89" y="292.893" width="100" height="200" fill="blue" style="fill:blue;stroke:pink;stroke-width:5"/>
<rect x="1192.89" y="292.893" width="100" height="200" fill="blue" style="fill:blue;stroke:pink;stroke-width:5"/>
<rect x="1292.89" y="292.893" width="100" height="200" fill="blue" style="fill:blue;stroke:pink;stroke-width:5"/>
<rect x="1392.89" y="292.893" width="100" height="200" fill="blue" style="fill:blue;stroke:pink;stroke-width:5"/>
<rect x="1492.89" y="292.893" width="100" height="200" fill="blue" style="fill:blue;stroke:pink;stroke-width:5"/>
<rect x="292.893" y="492.893" width="100" height="200" fill="blue" style="fill:blue;stroke:pink;stroke-width:5"/>
<rect x="392.893" y="492.893" width="100" height="200" fill="blue" style="fill:blue;stroke:pink;stroke-width:5"/>
<rect x="492.893" y="492.893" width="100" height="200" fill="blue" style="fill:blue;stroke:pink;stroke-width:5"/>
<rect x="592.893" y="492.893" width="100" height="200" fill="blue" style="fill:blue;stroke:pink;stroke-width:5"/>
<rect x="692.893" y="492.893" width="100" height="200" fill="blue" style="fill:blue;stroke:pink;stroke-width:5"/>
<rect x="792.893" y="492.893" width="100" height="200" fill="blue" style="fill:blue;stroke:pink;stroke-width:5"/>
<rect x="892.893" y="492.893" width="100" height="200" fill="blue" style="fill:blue;stroke:pink;stroke-width:5"/>
<rect x="992.893" y="492.893" width="100" height="200" fill="blue" style="fill:blue;stroke:pink;stroke-width:5"/>
<rect x="1092.89" y="492.893" width="100" height="200" fill="blue" style="fill:blue;stroke:pink;stroke-width:5"/>
<rect x="1192.89" y="492.893" width="100" height="200" fill="blue" style="fill:blue;stroke:pink;stroke-width:5"/>
<rect x="1292.89" y="492.893" width="100" height="200" fill="blue" style="fill:blue;stroke:pink;stroke-width:5"/>
<rect x="1392.89" y="492.893" width="100" height="200" fill="blue" style="fill:blue;stroke:pink;stroke-width:5"/>
<rect x="1492.89" y="492.893" width="100" height="200" fill="blue" style="fill:blue;stroke:pink;stroke-width:5"/>
<rect x="292.893" y="692.893" width="100" height="200" fill="blue" style="fill:blue;stroke:pink;stroke-width:5"/>
<rect x="392.893" y="692.893" width="100" height="200" fill="blue" style="fill:blue;stroke:pink;stroke-width:5"/>
<rect x="492.893" y="692.893" width="100" height="200" fill="blue" style="fill:blue;stroke:pink;stroke-width:5"/>
<rect x="592.893" y="692.893" width="100" height="200" fill="blue" style="fill:blue;stroke:pink;stroke-width:5"/>
<rect x="692.893" y="692.893" width="100" height="200" fill="blue" style="fill:blue;stroke:pink;stroke-width:5"/>
<rect x="792.893" y="692.893" width="100" height="200" fill="blue" style="fill:blue;stroke:pink;stroke-width:5"/>
<rect x="892.893" y="692.893" width="100" height="200" fill="blue" style="fill:blue;stroke:pink;stroke-width:5"/>
<rect x="992.893" y="692.893" width="100" height="200" fill="blue" style="fill:blue;stroke:pink;stroke-width:5"/>
<rect x="1092.89" y="692.893" width="100" height="200" fill="blue" style="fill:blue;stroke:pink;stroke-width:5"/>
<rect x="1192.89" y="692.893" width="100" height="200" fill="blue" style="fill:blue;stroke:pink;stroke-width:5"/>
<rect x="1292.89" y="692.893" width="100" height="200" fill="blue" style="fill:blue;stroke:pink;stroke-width:5"/>
<rect x="1392.89" y="692.893" width="100" height="200" fill="blue" style="fill:blue;stroke:pink;stroke-width:5"/>
<rect x="1492.89" y="692.893" width="100" height="200" fill="blue" style="fill:blue;stroke:pink;stroke-width:5"/>
<rect x="292.893" y="892.893" width="100" height="200" fill="blue" style="fill:blue;stroke:pink;stroke-width:5"/>
<rect x="392.893" y="892.893" width="100" height="200" fill="blue" style="fill:blue;stroke:pink;stroke-width:5"/>
<rect x="492.893" y="892.893" width="100" height="200" fill="blue" style="fill:blue;stroke:pink;stroke-width:5"/>
<rect x="592.893" y="892.893" width="100" height="200" fill="blue" style="fill:blue;stroke:pink;stroke-width:5"/>
<rect x="692.893" y="892.893" width="100" height="200" fill="blue" style="fill:blue;stroke:pink;stroke-width:5"/>
<rect x="792.893" y="892.893" width="100" height="200" fill="blue" style="fill:blue;stroke:pink;stroke-width:5"/>
<rect x="892.893" y="892.893" width="100" height="200" fill="blue" style="fill:blue;stroke:pink;stroke-width:5"/>
<rect x="992.893" y="892.893" width="100" height="200" fill="blue" style="fill:blue;stroke:pink;stroke-width:5"/>
<rect x="1092.89" y="892.893" width="100" height="200" fill="blue" style="fill:blue;stroke:pink;stroke-width:5"/>
<rect x="1192.89" y="892.893" width="100" height="200" fill="blue" style="fill:blue;stroke:pink;stroke-width:5"/>
<rect x="1292.89" y="892.893" width="100" height="200" fill="blue" style="fill:blue;stroke:pink;stroke-width:5"/>
<rect x="1392.89" y="892.893" width="100" height="200" fill="blue" style="fill:blue;stroke:pink;stroke-width:5"/>
<rect x="1492.89" y="892.893" width="100" height="200" fill="blue" style="fill:blue;stroke:pink;stroke-width:5"/>
<rect x="292.893" y="1092.89" width="100" height="200" fill="blue" style="fill:blue;stroke:pink;stroke-width:5"/>
<rect x="392.893" y="1092.89" width="100" height="200" fill="blue" style="fill:blue;stroke:pink;stroke-width:5"/>
<rect x="492.893" y="1092.89" width="100" height="200" fill="blue" style="fill:blue;stroke:pink;stroke-width:5"/>
<rect x="592.893" y="1092.89" width="100" height="200" fill="blue" style="fill:blue;stroke:pink;stroke-width:5"/>
<rect x="692.893" y="1092.89" width="100" height="200" fill="blue" style="fill:blue;stroke:pink;stroke-width:5"/>
<rect x="792.893" y="1092.89" width="100" height="200" fill="blue" style="fill:blue;stroke:pink;stroke-width:5"/>
<rect x="892.893" y="1092.89" width="100" height="200" fill="blue" style="fill:blue;stroke:pink;stroke-width:5"/>
<rect x="992.893" y="1092.89" width="100" height="200" fill="blue" style="fill:blue;stroke:pink;stroke-width:5"/>
<rect x="1092.89" y="1092.89" width="100" height="200" fill="blue" style="fill:blue;stroke:pink;stroke-width:5"/>
<rect x="1192.89" y="1092.89" width="100" height="200" fill="blue" style="fill:blue;stroke:pink;stroke-width:5"/>
<rect x="1292.89" y="1092.89" width="100" height="200" fill="blue" style="fill:blue;stroke:pink;stroke-width:5"/>
<rect x="1392.89" y="1092.89" width="100" height="200" fill="blue" style="fill:blue;stroke:pink;stroke-width:5"/>
<rect x="1492.89" y="1092.89" width="100" height="200" fill="blue" style="fill:blue;stroke:pink;stroke-width:5"/>
<rect x="492.893" y="192.893" width="200" height="100" fill="blue" style="fill:blue;stroke:pink;stroke-width:5"/>
<rect x="692.893" y="192.893" width="200" height="100" fill="blue" style="fill:blue;stroke:pink;stroke-width:5"/>
<rect x="892.893" y="192.893" width="200" height="100" fill="blue" style="fill:blue;stroke:pink;stroke-width:5"/>
<rect x="1092.89" y="192.893" width="200" height="100" fill="blue" style="fill:blue;stroke:pink;stroke-width:5"/>
<rect x="1292.89" y="192.893" width="200" height="100" fill="blue" style="fill:blue;stroke:pink;stroke-width:5"/>
<rect x="692.893" y="92.8932" width="200" height="100" fill="blue" style="fill:blue;stroke:pink;stroke-width:5"/>
<rect x="892.893" y="92.8932" width="200" height="100" fill="blue" style="fill:blue;stroke:pink;stroke-width:5"/>
<rect x="1092.89" y="92.8932" width="200" height="100" fill="blue" style="fill:blue;stroke:pink;stroke-width:5"/>
<rect x="892.893" y="1892.89" width="200" height="100" fill="blue" style="fill:blue;stroke:pink;stroke-width:5"/>
<rect x="292.893" y="492.893" width="100" height="200" fill="blue" style="fill:blue;stroke:pink;stroke-width:5"/>
<rect x="392.893" y="492.893" width="100" height="200" fill="blue" style="fill:blue;stroke:pink;stroke-width:5"/>
<rect x="492.893" y="492.893" width="100" height="200" fill="blue" style="fill:blue;stroke:pink;stroke-width:5"/>
<rect x="592.893" y="492.893" width="100" height="200" fill="blue" style="fill:blue;stroke:pink;stroke-width:5"/>
<rect x="692.893" y="492.893" width="100" height="200" fill="blue" style="fill:blue;stroke:pink;stroke-width:5"/>
<rect x="792.893" y="492.893" width="100" height="200" fill="blue" style="fill:blue;stroke:pink;stroke-width:5"/>
<rect x="892.893" y="492.893" width="100" height="200" fill="blue" style="fill:blue;stroke:pink;stroke-width:5"/>
<rect x="992.893" y="492.893" width="100" height="200" fill="blue" style="fill:blue;stroke:pink;stroke-width:5"/>
<rect x="1092.89" y="492.893" width="100" height="200" fill="blue" style="fill:blue;stroke:pink;stroke-width:5"/>
<rect x="1192.89" y="492.893" width="100" height="200" fill="blue" style="fill:blue;stroke:pink;stroke-width:5"/>
<rect x="1292.89" y="492.893" width="100" height="200" fill="blue" style="fill:blue;stroke:pink;stroke-width:5"/>
<rect x="1392.89" y="492.893" width="100" height="200" fill="blue" style="fill:blue;stroke:pink;stroke-width:5"/>
<rect x="1492.89" y="492.893" width="100" height="200" fill="blue" style="fill:blue;stroke:pink;stroke-width:5"/>
<rect x="1592.89" y="492.893" width="100" height="200" fill="blue" style="fill:blue;stroke:pink;stroke-width:5"/>
<rect x="1692.89" y="492.893" width="100" height="200" fill="blue" style="fill:blue;stroke:pink;stroke-width:5"/>
<rect x="292.893" y="692.893" width="100" height="200" fill="blue" style="fill:blue;stroke:pink;stroke-width:5"/>
<rect x="392.893" y="692.893" width="100" height="200" fill="blue" style="fill:blue;stroke:pink;stroke-width:5"/>
<rect x="492.893" y="692.893" width="100" height="200" fill="blue" style="fill:blue;stroke:pink;stroke-width:5"/>
<rect x="592.893" y="692.893" width="100" height="200" fill="blue" style="fill:blue;stroke:pink;stroke-width:5"/>
<rect x="692.893" y="692.893" width="100" height="200" fill="blue" style="fill:blue;stroke:pink;stroke-width:5"/>
<rect x="792.893" y="692.893" width="100" height="200" fill="blue" style="fill:blue;stroke:pink;stroke-width:5"/>
<rect x="892.893" y="692.893" width="100" height="200" fill="blue" style="fill:blue;stroke:pink;stroke-width:5"/>
<rect x="992.893" y="692.893" width="100" height="200" fill="blue" style="fill:blue;stroke:pink;stroke-width:5"/>
<rect x="1092.89" y="692.893" width="100" height="200" fill="blue" style="fill:blue;stroke:pink;stroke-width:5"/>
<rect x="1192.89" y="692.893" width="100" height="200" fill="blue" style="fill:blue;stroke:pink;stroke-width:5"/>
<rect x="1292.89" y="692.893" width="100" height="200" fill="blue" style="fill:blue;stroke:pink;stroke-width:5"/>
<rect x="1392.89" y="692.893" width="100" height="200" fill="blue" style="fill:blue;stroke:pink;stroke-width:5"/>
<rect x="1492.89" y="692.893" width="100" height="200" fill="blue" style="fill:blue;stroke:pink;stroke-width:5"/>
<rect x="1592.89" y="692.893" width="100" height="200" fill="blue" style="fill:blue;stroke:pink;stroke-width:5"/>
<rect x="1692.89" y="692.893" width="100" height="200" fill="blue" style="fill:blue;stroke:pink;stroke-width:5"/>
<rect x="1792.89" y="692.893" width="100" height="200" fill="blue" style="fill:blue;stroke:pink;stroke-width:5"/>
<rect x="292.893" y="892.893" width="100" height="200" fill="blue" style="fill:blue;stroke:pink;stroke-width:5"/>
<rect x="392.893" y="892.893" width="100" height="200" fill="blue" style="fill:blue;stroke:pink;stroke-width:5"/>
<rect x="492.893" y="892.893" width="100" height="200" fill="blue" style="fill:blue;stroke:pink;stroke-width:5"/>
<rect x="592.893" y="892.893" width="100" height="200" fill="blue" style="fill:blue;stroke:pink;stroke-width:5"/>
<rect x="692.893" y="892.893" width="100" height="200" fill="blue" style="fill:blue;stroke:pink;stroke-width:5"/>
<rect x="792.893" y="892.893" width="100" height="200" fill="blue" style="fill:blue;stroke:pink;stroke-width:5"/>
<rect x="892.893" y="892.893" width="100" height="200" fill="blue" style="fill:blue;stroke:pink;stroke-width:5"/>
<rect x="992.893" y="892.893" width="100" height="200" fill="blue" style="fill:blue;stroke:pink;stroke-width:5"/>
<rect x="1092.89" y="892.893" width="100" height="200" fill="blue" style="fill:blue;stroke:pink;stroke-width:5"/>
<rect x="1192.89" y="892.893" width="100" height="200" fill="blue" style="fill:blue;stroke:pink;stroke-width:5"/>
<rect x="1292.89" y="892.893" width="100" height="200" fill="blue" style="fill:blue;stroke:pink;stroke-width:5"/>
<rect x="1392.89" y="892.893" width="100" height="200" fill="blue" style="fill:blue;stroke:pink;stroke-width:5"/>
<rect x="1492.89" y="892.893" width="100" height="200" fill="blue" style="fill:blue;stroke:pink;stroke-width:5"/>
<rect x="1592.89" y="892.893" width="100" height="200" fill="blue" style="fill:blue;stroke:pink;stroke-width:5"/>
<rect x="1692.89" y="892.893" width="100" height="200" fill="blue" style="fill:blue;stroke:pink;stroke-width:5"/>
<rect x="1792.89" y="892.893" width="100" height="200" fill="blue" style="fill:blue;stroke:pink;stroke-width:5"/>
<rect x="1892.89" y="892.893" width="100" height="200" fill="blue" style="fill:blue;stroke:pink;stroke-width:5"/>
<rect x="292.893" y="1092.89" width="100" height="200" fill="blue" style="fill:blue;stroke:pink;stroke-width:5"/>
<rect x="392.893" y="1092.89" width="100" height="200" fill="blue" style="fill:blue;stroke:pink;stroke-width:5"/>
<rect x="492.893" y="1092.89" width="100" height="200" fill="blue" style="fill:blue;stroke:pink;stroke-width:5"/>
<rect x="592.893" y="1092.89" width="100" height="200" fill="blue" style="fill:blue;stroke:pink;stroke-width:5"/>
<rect x="692.893" y="1092.89" width="100" height="200" fill="blue" style="fill:blue;stroke:pink;stroke-width:5"/>
<rect x="792.893" y="1092.89" width="100" height="200" fill="blue" style="fill:blue;stroke:pink;stroke-width:5"/>
<rect x="892.893" y="1092.89" width="100" height="200" fill="blue" style="fill:blue;stroke:pink;stroke-width:5"/>
<rect x="992.893" y="1092.89" width="100" height="200" fill="blue" style="fill:blue;stroke:pink;stroke-width:5"/>
<rect x="1092.89" y="1092.89" width="100" height="200" fill="blue" style="fill:blue;stroke:pink;stroke-width:5"/>
<rect x="1192.89" y="1092.89" width="100" height="200" fill="blue" style="fill:blue;stroke:pink;stroke-width:5"/>
<rect x="1292.89" y="1092.89" width="100" height="200" fill="blue" style="fill:blue;stroke:pink;stroke-width:5"/>
<rect x="1392.89" y="1092.89" width="100" height="200" fill="blue" style="fill:blue;stroke:pink;stroke-width:5"/>
<rect x="1492.89" y="1092.89" width="100" height="200" fill="blue" style="fill:blue;stroke:pink;stroke-width:5"/>
<rect x="1592.89" y="1092.89" width="100" height="200" fill="blue" style="fill:blue;stroke:pink;stroke-width:5"/>
<rect x="1692.89" y="1092.89" width="100" height="200" fill="blue" style="fill:blue;stroke:pink;stroke-width:5"/>
<rect x="1792.89" y="1092.89" width="100" height="200" fill="blue" style="fill:blue;stroke:pink;stroke-width:5"/>
<rect x="292.893" y="1292.89" width="100" height="200" fill="blue" style="fill:blue;stroke:pink;stroke-width:5"/>
<rect x="392.893" y="1292.89" width="100" height="200" fill="blue" style="fill:blue;stroke:pink;stroke-width:5"/>
<rect x="492.893" y="1292.89" width="100" height="200" fill="blue" style="fill:blue;stroke:pink;stroke-width:5"/>
<rect x="592.893" y="1292.89" width="100" height="200" fill="blue" style="fill:blue;stroke:pink;stroke-width:5"/>
<rect x="692.893" y="1292.89" width="100" height="200" fill="blue" style="fill:blue;stroke:pink;stroke-width:5"/>
<rect x="792.893" y="1292.89" width="100" height="200" fill="blue" style="fill:blue;stroke:pink;stroke-width:5"/>
<rect x="892.893" y="1292.89" width="100" height="200" fill="blue" style="fill:blue;stroke:pink;stroke-width:5"/>
<rect x="992.893" y="1292.89" width="100" height="200" fill="blue" style="fill:blue;stroke:pink;stroke-width:5"/>
<rect x="1092.89" y="1292.89" width="100" height="200" fill="blue" style="fill:blue;stroke:pink;stroke-width:5"/>
<rect x="1192.89" y="1292.89" width="100" height="200" fill="blue" style="fill:blue;stroke:pink;stroke-width:5"/>
<rect x="1292.89" y="1292.89" width="100" height="200" fill="blue" style="fill:blue;stroke:pink;stroke-width:5"/>
<rect x="1392.89" y="1292.89" width="100" height="200" fill="blue" style="fill:blue;stroke:pink;stroke-width:5"/>
<rect x="1492.89" y="1292.89" width="100" height="200" fill="blue" style="fill:blue;stroke:pink;stroke-width:5"/>
<rect x="1592.89" y="1292.89" width="100" height="200" fill="blue" style="fill:blue;stroke:pink;stroke-width:5"/>
<rect x="1692.89" y="1292.89" width="100" height="200" fill="blue" style="fill:blue;stroke:pink;stroke-width:5"/>
<rect x="292.893" y="1492.89" width="100" height="200" fill="blue" style="fill:blue;stroke:pink;stroke-width:5"/>
<rect x="392.893" y="1492.89" width="100" height="200" fill="blue" style="fill:blue;stroke:pink;stroke-width:5"/>
<rect x="492.893" y="1492.89" width="100" height="200" fill="blue" style="fill:blue;stroke:pink;stroke-width:5"/>
<rect x="592.893" y="1492.89" width="100" height="200" fill="blue" style="fill:blue;stroke:pink;stroke-width:5"/>
<rect x="692.893" y="1492.89" width="100" height="200" fill="blue" style="fill:blue;stroke:pink;stroke-width:5"/>
<rect x="792.893" y="1492.89" width="100" height="200" fill="blue" style="fill:blue;stroke:pink;stroke-width:5"/>
<rect x="892.893" y="1492.89" width="100" height="200" fill="blue" style="fill:blue;stroke:pink;stroke-width:5"/>
<rect x="992.893" y="1492.89" width="100" height="200" fill="blue" style="fill:blue;stroke:pink;stroke-width:5"/>
<rect x="1092.89" y="1492.89" width="100" height="200" fill="blue" style="fill:blue;stroke:pink;stroke-width:5"/>
<rect x="1192.89" y="1492.89" width="100" height="200" fill="blue" style="fill:blue;stroke:pink;stroke-width:5"/>
<rect x="1292.89" y="1492.89" width="100" height="200" fill="blue" style="fill:blue;stroke:pink;stroke-width:5"/>
<rect x="1392.89" y="1492.89" width="100" height="200" fill="blue" style="fill:blue;stroke:pink;stroke-width:5"/>
<rect x="1492.89" y="1492.89" width="100" height="200" fill="blue" style="fill:blue;stroke:pink;stroke-width:5"/>
<rect x="1592.89" y="1492.89" width="100" height="200" fill="blue" style="fill:blue;stroke:pink;stroke-width:5"/>
<rect x="592.893" y="1692.89" width="100" height="200" fill="blue" style="fill:blue;stroke:pink;stroke-width:5"/>
<rect x="692.893" y="1692.89" width="100" height="200" fill="blue" style="fill:blue;stroke:pink;stroke-width:5"/>
<rect x="792.893" y="1692.89" width="100" height="200" fill="blue" style="fill:blue;stroke:pink;stroke-width:5"/>
<rect x="892.893" y="1692.89" width="100" height="200" fill="blue" style="fill:blue;stroke:pink;stroke-width:5"/>
<rect x="992.893" y="1692.89" width="100" height="200" fill="blue" style="fill:blue;stroke:pink;stroke-width:5"/>
<rect x="1092.89" y="1692.89" width="100" height="200" fill="blue" style="fill:blue;stroke:pink;stroke-width:5"/>
<rect x="1192.89" y="1692.89" width="100" height="200" fill="blue" style="fill:blue;stroke:pink;stroke-width:5"/>
<rect x="1292.89" y="1692.89" width="100" height="200" fill="blue" style="fill:blue;stroke:pink;stroke-width:5"/>
<rect x="192.893" y="492.893" width="100" height="200" fill="blue" style="fill:blue;stroke:pink;stroke-width:5"/>
<rect x="192.893" y="692.893" width="100" height="200" fill="blue" style="fill:blue;stroke:pink;stroke-width:5"/>
<rect x="92.8932" y="692.893" width="100" height="200" fill="blue" style="fill:blue;stroke:pink;stroke-width:5"/>
<rect x="192.893" y="892.893" width="100" height="200" fill="blue" style="fill:blue;stroke:pink;stroke-width:5"/>
<rect x="92.8932" y="892.893" width="100" height="200" fill="blue" style="fill:blue;stroke:pink;stroke-width:5"/>
<rect x="192.893" y="1092.89" width="100" height="200" fill="blue" style="fill:blue;stroke:pink;stroke-width:5"/>
<rect x="92.8932" y="1092.89" width="100" height="200" fill="blue" style="fill:blue;stroke:pink;stroke-width:5"/>
<rect x="192.893" y="1292.89" width="100" height="200" fill="blue" style="fill:blue;stroke:pink;stroke-width:5"/>
</svg>