<svg version="1.1" 
 baseProfile="full" 
 width="1000" height="1000" 
 xmlns="http://www.w3.org/2000/svg">
<rect width="100%" height="100%" fill="red" />
 <circle cx="100" cy="100" r="100" fill="blue" /> 
 <circle cx="300" cy="100" r="100" fill="blue" /> 
 <circle cx="500" cy="100" r="100" fill="blue" /> 
 <circle cx="700" cy="100" r="100" fill="blue" /> 
 <circle cx="900" cy="100" r="100" fill="blue" /> 
 <circle cx="100" cy="300" r="100" fill="blue" /> 
 <circle cx="300" cy="300" r="100" fill="blue" /> 
 <circle cx="500" cy="300" r="100" fill="blue" /> 
 <circle cx="700" cy="300" r="100" fill="blue" /> 
 <circle cx="900" cy="300" r="100" fill="blue" /> 
 <circle cx="100" cy="500" r="100" fill="blue" /> 
 <circle cx="300" cy="500" r="100" fill="blue" /> 
 <circle cx="500" cy="500" r="100" fill="blue" /> 
 <circle cx="700" cy="500" r="100" fill="blue" /> 
 <circle cx="900" cy="500" r="100" fill="blue" /> 
 <circle cx="100" cy="700" r="100" fill="blue" /> 
 <circle cx="300" cy="700" r="100" fill="blue" /> 
 <circle cx="500" cy="700" r="100" fill="blue" /> 
 <circle cx="700" cy="700" r="100" fill="blue" /> 
 <circle cx="900" cy="700" r="100" fill="blue" /> 
 <circle cx="100" cy="900" r="100" fill="blue" /> 
 <circle cx="300" cy="900" r="100" fill="blue" /> 
 <circle cx="500" cy="900" r="100" fill="blue" /> 
 <circle cx="700" cy="900" r="100" fill="blue" /> 
 <circle cx="900" cy="900" r="100" fill="blue" /> 
</svg>