<svg version="1.1" 
 baseProfile="full" 
 width="2000" height="2000" 
 xmlns="http://www.w3.org/2000/svg">
 <circle cx="1000" cy="1000" r="1000" fill="red" /> 
 <circle cx="1198.76" cy="122.222" r="100" fill="blue" /> 
 <circle cx="1387.71" cy="187.791" r="100" fill="blue" /> 
 <circle cx="1557.51" cy="293.47" r="100" fill="blue" /> 
 <circle cx="1699.78" cy="434.039" r="100" fill="blue" /> 
 <circle cx="1807.49" cy="602.556" r="100" fill="blue" /> 
 <circle cx="1875.32" cy="790.7" r="100" fill="blue" /> 
 <circle cx="1899.93" cy="989.18" r="100" fill="blue" /> 
 <circle cx="1880.1" cy="1188.19" r="100" fill="blue" /> 
 <circle cx="1816.81" cy="1377.92" r="100" fill="blue" /> 
 <circle cx="1713.18" cy="1548.97" r="100" fill="blue" /> 
 <circle cx="1574.33" cy="1692.92" r="100" fill="blue" /> 
 <circle cx="1407.12" cy="1802.65" r="100" fill="blue" /> 
 <circle cx="1219.81" cy="1872.75" r="100" fill="blue" /> 
 <circle cx="1021.64" cy="1899.74" r="100" fill="blue" /> 
 <circle cx="822.399" cy="1882.3" r="100" fill="blue" /> 
 <circle cx="631.931" cy="1821.29" r="100" fill="blue" /> 
 <circle cx="459.64" cy="1719.73" r="100" fill="blue" /> 
 <circle cx="314.032" cy="1582.62" r="100" fill="blue" /> 
 <circle cx="202.3" cy="1416.74" r="100" fill="blue" /> 
 <circle cx="129.96" cy="1230.28" r="100" fill="blue" /> 
 <circle cx="100.585" cy="1032.45" r="100" fill="blue" /> 
 <circle cx="115.626" cy="833.019" r="100" fill="blue" /> 
 <circle cx="174.34" cy="641.831" r="100" fill="blue" /> 
 <circle cx="273.826" cy="468.331" r="100" fill="blue" /> 
 <circle cx="409.174" cy="321.086" r="100" fill="blue" /> 
 <circle cx="573.698" cy="207.368" r="100" fill="blue" /> 
 <circle cx="759.273" cy="132.791" r="100" fill="blue" /> 
 <circle cx="956.737" cy="101.04" r="100" fill="blue" /> 
 <circle cx="1197.95" cy="328.571" r="100" fill="blue" /> 
 <circle cx="1379.74" cy="411.953" r="100" fill="blue" /> 
 <circle cx="1530.53" cy="543.339" r="100" fill="blue" /> 
 <circle cx="1638.01" cy="712.003" r="100" fill="blue" /> 
 <circle cx="1693.41" cy="904.177" r="100" fill="blue" /> 
 <circle cx="1692.21" cy="1104.17" r="100" fill="blue" /> 
 <circle cx="1634.49" cy="1295.67" r="100" fill="blue" /> 
 <circle cx="1524.99" cy="1463.02" r="100" fill="blue" /> 
 <circle cx="1372.62" cy="1592.58" r="100" fill="blue" /> 
 <circle cx="1189.84" cy="1673.77" r="100" fill="blue" /> 
 <circle cx="991.563" cy="1699.95" r="100" fill="blue" /> 
 <circle cx="793.973" cy="1668.99" r="100" fill="blue" /> 
 <circle cx="613.201" cy="1583.43" r="100" fill="blue" /> 
 <circle cx="464.005" cy="1450.23" r="100" fill="blue" /> 
 <circle cx="358.564" cy="1280.29" r="100" fill="blue" /> 
 <circle cx="305.485" cy="1087.46" r="100" fill="blue" /> 
 <circle cx="309.101" cy="887.49" r="100" fill="blue" /> 
 <circle cx="369.117" cy="696.707" r="100" fill="blue" /> 
 <circle cx="480.633" cy="530.683" r="100" fill="blue" /> 
 <circle cx="634.547" cy="402.97" r="100" fill="blue" /> 
 <circle cx="818.294" cy="323.995" r="100" fill="blue" /> 
 <circle cx="1195.96" cy="540" r="100" fill="blue" /> 
 <circle cx="1360.56" cy="653.6" r="100" fill="blue" /> 
 <circle cx="1467.48" cy="822.624" r="100" fill="blue" /> 
 <circle cx="1499.6" cy="1020.03" r="100" fill="blue" /> 
 <circle cx="1451.78" cy="1214.23" r="100" fill="blue" /> 
 <circle cx="1331.68" cy="1374.15" r="100" fill="blue" /> 
 <circle cx="1158.51" cy="1474.21" r="100" fill="blue" /> 
 <circle cx="959.976" cy="1498.4" r="100" fill="blue" /> 
 <circle cx="767.847" cy="1442.84" r="100" fill="blue" /> 
 <circle cx="612.863" cy="1316.43" r="100" fill="blue" /> 
 <circle cx="519.821" cy="1139.39" r="100" fill="blue" /> 
 <circle cx="503.608" cy="940.044" r="100" fill="blue" /> 
 <circle cx="566.817" cy="750.295" r="100" fill="blue" /> 
 <circle cx="699.335" cy="600.499" r="100" fill="blue" /> 
 <circle cx="879.96" cy="514.623" r="100" fill="blue" /> 
 <circle cx="1188.56" cy="766.667" r="100" fill="blue" /> 
 <circle cx="1293.32" cy="937.037" r="100" fill="blue" /> 
 <circle cx="1267.71" cy="1135.39" r="100" fill="blue" /> 
 <circle cx="1123.12" cy="1273.57" r="100" fill="blue" /> 
 <circle cx="923.811" cy="1290.16" r="100" fill="blue" /> 
 <circle cx="758.362" cy="1177.8" r="100" fill="blue" /> 
 <circle cx="700.308" cy="986.406" r="100" fill="blue" /> 
 <circle cx="775.45" cy="801.059" r="100" fill="blue" /> 
 <circle cx="950.393" cy="704.13" r="100" fill="blue" /> 
 <circle cx="1000" cy="1100" r="100" fill="blue" /> 
</svg>