<svg version="1.1" 
 baseProfile="full" 
 width="1000" height="1000" 
 xmlns="http://www.w3.org/2000/svg">
<rect width="100%" height="100%" fill="red" />
<rect x="0" y="0" width="135" height="217" fill="blue" style="fill:blue;stroke:pink;stroke-width:5"/>
<rect x="135" y="0" width="135" height="217" fill="blue" style="fill:blue;stroke:pink;stroke-width:5"/>
<rect x="270" y="0" width="135" height="217" fill="blue" style="fill:blue;stroke:pink;stroke-width:5"/>
<rect x="405" y="0" width="135" height="217" fill="blue" style="fill:blue;stroke:pink;stroke-width:5"/>
<rect x="540" y="0" width="135" height="217" fill="blue" style="fill:blue;stroke:pink;stroke-width:5"/>
<rect x="675" y="0" width="135" height="217" fill="blue" style="fill:blue;stroke:pink;stroke-width:5"/>
<rect x="810" y="0" width="135" height="217" fill="blue" style="fill:blue;stroke:pink;stroke-width:5"/>
<rect x="0" y="217" width="135" height="217" fill="blue" style="fill:blue;stroke:pink;stroke-width:5"/>
<rect x="135" y="217" width="135" height="217" fill="blue" style="fill:blue;stroke:pink;stroke-width:5"/>
<rect x="270" y="217" width="135" height="217" fill="blue" style="fill:blue;stroke:pink;stroke-width:5"/>
<rect x="405" y="217" width="135" height="217" fill="blue" style="fill:blue;stroke:pink;stroke-width:5"/>
<rect x="540" y="217" width="135" height="217" fill="blue" style="fill:blue;stroke:pink;stroke-width:5"/>
<rect x="675" y="217" width="135" height="217" fill="blue" style="fill:blue;stroke:pink;stroke-width:5"/>
<rect x="810" y="217" width="135" height="217" fill="blue" style="fill:blue;stroke:pink;stroke-width:5"/>
<rect x="0" y="434" width="135" height="217" fill="blue" style="fill:blue;stroke:pink;stroke-width:5"/>
<rect x="135" y="434" width="135" height="217" fill="blue" style="fill:blue;stroke:pink;stroke-width:5"/>
<rect x="270" y="434" width="135" height="217" fill="blue" style="fill:blue;stroke:pink;stroke-width:5"/>
<rect x="405" y="434" width="135" height="217" fill="blue" style="fill:blue;stroke:pink;stroke-width:5"/>
<rect x="540" y="434" width="135" height="217" fill="blue" style="fill:blue;stroke:pink;stroke-width:5"/>
<rect x="675" y="434" width="135" height="217" fill="blue" style="fill:blue;stroke:pink;stroke-width:5"/>
<rect x="810" y="434" width="135" height="217" fill="blue" style="fill:blue;stroke:pink;stroke-width:5"/>
<rect x="0" y="651" width="135" height="217" fill="blue" style="fill:blue;stroke:pink;stroke-width:5"/>
<rect x="135" y="651" width="135" height="217" fill="blue" style="fill:blue;stroke:pink;stroke-width:5"/>
<rect x="270" y="651" width="135" height="217" fill="blue" style="fill:blue;stroke:pink;stroke-width:5"/>
<rect x="405" y="651" width="135" height="217" fill="blue" style="fill:blue;stroke:pink;stroke-width:5"/>
<rect x="540" y="651" width="135" height="217" fill="blue" style="fill:blue;stroke:pink;stroke-width:5"/>
<rect x="675" y="651" width="135" height="217" fill="blue" style="fill:blue;stroke:pink;stroke-width:5"/>
<rect x="810" y="651" width="135" height="217" fill="blue" style="fill:blue;stroke:pink;stroke-width:5"/>
</svg>