<svg version="1.1" 
 baseProfile="full" 
 width="1000" height="1000" 
 xmlns="http://www.w3.org/2000/svg">
 <polygon points="500,0 0,866.025 1000,866.025" fill="red"/> 
<polygon points="500,0 450,86.6025 550,86.6025" style="fill:blue;stroke:pink;stroke-width:5" /> 
<polygon points="450,86.6025 400,173.205 500,173.205" style="fill:blue;stroke:pink;stroke-width:5" /> 
<polygon points="450,86.6025 550,86.6025 500,173.205" style="fill:blue;stroke:pink;stroke-width:5" /> 
<polygon points="550,86.6025 500,173.205 600,173.205" style="fill:blue;stroke:pink;stroke-width:5" /> 
<polygon points="400,173.205 350,259.808 450,259.808" style="fill:blue;stroke:pink;stroke-width:5" /> 
<polygon points="400,173.205 500,173.205 450,259.808" style="fill:blue;stroke:pink;stroke-width:5" /> 
<polygon points="500,173.205 450,259.808 550,259.808" style="fill:blue;stroke:pink;stroke-width:5" /> 
<polygon points="500,173.205 600,173.205 550,259.808" style="fill:blue;stroke:pink;stroke-width:5" /> 
<polygon points="600,173.205 550,259.808 650,259.808" style="fill:blue;stroke:pink;stroke-width:5" /> 
<polygon points="350,259.808 300,346.41 400,346.41" style="fill:blue;stroke:pink;stroke-width:5" /> 
<polygon points="350,259.808 450,259.808 400,346.41" style="fill:blue;stroke:pink;stroke-width:5" /> 
<polygon points="450,259.808 400,346.41 500,346.41" style="fill:blue;stroke:pink;stroke-width:5" /> 
<polygon points="450,259.808 550,259.808 500,346.41" style="fill:blue;stroke:pink;stroke-width:5" /> 
<polygon points="550,259.808 500,346.41 600,346.41" style="fill:blue;stroke:pink;stroke-width:5" /> 
<polygon points="550,259.808 650,259.808 600,346.41" style="fill:blue;stroke:pink;stroke-width:5" /> 
<polygon points="650,259.808 600,346.41 700,346.41" style="fill:blue;stroke:pink;stroke-width:5" /> 
<polygon points="300,346.41 250,433.013 350,433.013" style="fill:blue;stroke:pink;stroke-width:5" /> 
<polygon points="300,346.41 400,346.41 350,433.013" style="fill:blue;stroke:pink;stroke-width:5" /> 
<polygon points="400,346.41 350,433.013 450,433.013" style="fill:blue;stroke:pink;stroke-width:5" /> 
<polygon points="400,346.41 500,346.41 450,433.013" style="fill:blue;stroke:pink;stroke-width:5" /> 
<polygon points="500,346.41 450,433.013 550,433.013" style="fill:blue;stroke:pink;stroke-width:5" /> 
<polygon points="500,346.41 600,346.41 550,433.013" style="fill:blue;stroke:pink;stroke-width:5" /> 
<polygon points="600,346.41 550,433.013 650,433.013" style="fill:blue;stroke:pink;stroke-width:5" /> 
<polygon points="600,346.41 700,346.41 650,433.013" style="fill:blue;stroke:pink;stroke-width:5" /> 
<polygon points="700,346.41 650,433.013 750,433.013" style="fill:blue;stroke:pink;stroke-width:5" /> 
<polygon points="250,433.013 200,519.615 300,519.615" style="fill:blue;stroke:pink;stroke-width:5" /> 
<polygon points="250,433.013 350,433.013 300,519.615" style="fill:blue;stroke:pink;stroke-width:5" /> 
<polygon points="350,433.013 300,519.615 400,519.615" style="fill:blue;stroke:pink;stroke-width:5" /> 
<polygon points="350,433.013 450,433.013 400,519.615" style="fill:blue;stroke:pink;stroke-width:5" /> 
<polygon points="450,433.013 400,519.615 500,519.615" style="fill:blue;stroke:pink;stroke-width:5" /> 
<polygon points="450,433.013 550,433.013 500,519.615" style="fill:blue;stroke:pink;stroke-width:5" /> 
<polygon points="550,433.013 500,519.615 600,519.615" style="fill:blue;stroke:pink;stroke-width:5" /> 
<polygon points="550,433.013 650,433.013 600,519.615" style="fill:blue;stroke:pink;stroke-width:5" /> 
<polygon points="650,433.013 600,519.615 700,519.615" style="fill:blue;stroke:pink;stroke-width:5" /> 
<polygon points="650,433.013 750,433.013 700,519.615" style="fill:blue;stroke:pink;stroke-width:5" /> 
<polygon points="750,433.013 700,519.615 800,519.615" style="fill:blue;stroke:pink;stroke-width:5" /> 
<polygon points="200,519.615 150,606.218 250,606.218" style="fill:blue;stroke:pink;stroke-width:5" /> 
<polygon points="200,519.615 300,519.615 250,606.218" style="fill:blue;stroke:pink;stroke-width:5" /> 
<polygon points="300,519.615 250,606.218 350,606.218" style="fill:blue;stroke:pink;stroke-width:5" /> 
<polygon points="300,519.615 400,519.615 350,606.218" style="fill:blue;stroke:pink;stroke-width:5" /> 
<polygon points="400,519.615 350,606.218 450,606.218" style="fill:blue;stroke:pink;stroke-width:5" /> 
<polygon points="400,519.615 500,519.615 450,606.218" style="fill:blue;stroke:pink;stroke-width:5" /> 
<polygon points="500,519.615 450,606.218 550,606.218" style="fill:blue;stroke:pink;stroke-width:5" /> 
<polygon points="500,519.615 600,519.615 550,606.218" style="fill:blue;stroke:pink;stroke-width:5" /> 
<polygon points="600,519.615 550,606.218 650,606.218" style="fill:blue;stroke:pink;stroke-width:5" /> 
<polygon points="600,519.615 700,519.615 650,606.218" style="fill:blue;stroke:pink;stroke-width:5" /> 
<polygon points="700,519.615 650,606.218 750,606.218" style="fill:blue;stroke:pink;stroke-width:5" /> 
<polygon points="700,519.615 800,519.615 750,606.218" style="fill:blue;stroke:pink;stroke-width:5" /> 
<polygon points="800,519.615 750,606.218 850,606.218" style="fill:blue;stroke:pink;stroke-width:5" /> 
<polygon points="150,606.218 100,692.82 200,692.82" style="fill:blue;stroke:pink;stroke-width:5" /> 
<polygon points="150,606.218 250,606.218 200,692.82" style="fill:blue;stroke:pink;stroke-width:5" /> 
<polygon points="250,606.218 200,692.82 300,692.82" style="fill:blue;stroke:pink;stroke-width:5" /> 
<polygon points="250,606.218 350,606.218 300,692.82" style="fill:blue;stroke:pink;stroke-width:5" /> 
<polygon points="350,606.218 300,692.82 400,692.82" style="fill:blue;stroke:pink;stroke-width:5" /> 
<polygon points="350,606.218 450,606.218 400,692.82" style="fill:blue;stroke:pink;stroke-width:5" /> 
<polygon points="450,606.218 400,692.82 500,692.82" style="fill:blue;stroke:pink;stroke-width:5" /> 
<polygon points="450,606.218 550,606.218 500,692.82" style="fill:blue;stroke:pink;stroke-width:5" /> 
<polygon points="550,606.218 500,692.82 600,692.82" style="fill:blue;stroke:pink;stroke-width:5" /> 
<polygon points="550,606.218 650,606.218 600,692.82" style="fill:blue;stroke:pink;stroke-width:5" /> 
<polygon points="650,606.218 600,692.82 700,692.82" style="fill:blue;stroke:pink;stroke-width:5" /> 
<polygon points="650,606.218 750,606.218 700,692.82" style="fill:blue;stroke:pink;stroke-width:5" /> 
<polygon points="750,606.218 700,692.82 800,692.82" style="fill:blue;stroke:pink;stroke-width:5" /> 
<polygon points="750,606.218 850,606.218 800,692.82" style="fill:blue;stroke:pink;stroke-width:5" /> 
<polygon points="850,606.218 800,692.82 900,692.82" style="fill:blue;stroke:pink;stroke-width:5" /> 
<polygon points="100,692.82 50,779.423 150,779.423" style="fill:blue;stroke:pink;stroke-width:5" /> 
<polygon points="100,692.82 200,692.82 150,779.423" style="fill:blue;stroke:pink;stroke-width:5" /> 
<polygon points="200,692.82 150,779.423 250,779.423" style="fill:blue;stroke:pink;stroke-width:5" /> 
<polygon points="200,692.82 300,692.82 250,779.423" style="fill:blue;stroke:pink;stroke-width:5" /> 
<polygon points="300,692.82 250,779.423 350,779.423" style="fill:blue;stroke:pink;stroke-width:5" /> 
<polygon points="300,692.82 400,692.82 350,779.423" style="fill:blue;stroke:pink;stroke-width:5" /> 
<polygon points="400,692.82 350,779.423 450,779.423" style="fill:blue;stroke:pink;stroke-width:5" /> 
<polygon points="400,692.82 500,692.82 450,779.423" style="fill:blue;stroke:pink;stroke-width:5" /> 
<polygon points="500,692.82 450,779.423 550,779.423" style="fill:blue;stroke:pink;stroke-width:5" /> 
<polygon points="500,692.82 600,692.82 550,779.423" style="fill:blue;stroke:pink;stroke-width:5" /> 
<polygon points="600,692.82 550,779.423 650,779.423" style="fill:blue;stroke:pink;stroke-width:5" /> 
<polygon points="600,692.82 700,692.82 650,779.423" style="fill:blue;stroke:pink;stroke-width:5" /> 
<polygon points="700,692.82 650,779.423 750,779.423" style="fill:blue;stroke:pink;stroke-width:5" /> 
<polygon points="700,692.82 800,692.82 750,779.423" style="fill:blue;stroke:pink;stroke-width:5" /> 
<polygon points="800,692.82 750,779.423 850,779.423" style="fill:blue;stroke:pink;stroke-width:5" /> 
<polygon points="800,692.82 900,692.82 850,779.423" style="fill:blue;stroke:pink;stroke-width:5" /> 
<polygon points="900,692.82 850,779.423 950,779.423" style="fill:blue;stroke:pink;stroke-width:5" /> 
</svg>