<svg version="1.1" 
 baseProfile="full" 
 width="1000" height="1000" 
 xmlns="http://www.w3.org/2000/svg">
<rect width="100%" height="100%" fill="red" />
<rect x="0" y="0" width="100" height="100" fill="blue" style="fill:blue;stroke:pink;stroke-width:5"/>
<rect x="100" y="0" width="100" height="100" fill="blue" style="fill:blue;stroke:pink;stroke-width:5"/>
<rect x="200" y="0" width="100" height="100" fill="blue" style="fill:blue;stroke:pink;stroke-width:5"/>
<rect x="300" y="0" width="100" height="100" fill="blue" style="fill:blue;stroke:pink;stroke-width:5"/>
<rect x="400" y="0" width="100" height="100" fill="blue" style="fill:blue;stroke:pink;stroke-width:5"/>
<rect x="500" y="0" width="100" height="100" fill="blue" style="fill:blue;stroke:pink;stroke-width:5"/>
<rect x="600" y="0" width="100" height="100" fill="blue" style="fill:blue;stroke:pink;stroke-width:5"/>
<rect x="700" y="0" width="100" height="100" fill="blue" style="fill:blue;stroke:pink;stroke-width:5"/>
<rect x="800" y="0" width="100" height="100" fill="blue" style="fill:blue;stroke:pink;stroke-width:5"/>
<rect x="900" y="0" width="100" height="100" fill="blue" style="fill:blue;stroke:pink;stroke-width:5"/>
<rect x="0" y="100" width="100" height="100" fill="blue" style="fill:blue;stroke:pink;stroke-width:5"/>
<rect x="100" y="100" width="100" height="100" fill="blue" style="fill:blue;stroke:pink;stroke-width:5"/>
<rect x="200" y="100" width="100" height="100" fill="blue" style="fill:blue;stroke:pink;stroke-width:5"/>
<rect x="300" y="100" width="100" height="100" fill="blue" style="fill:blue;stroke:pink;stroke-width:5"/>
<rect x="400" y="100" width="100" height="100" fill="blue" style="fill:blue;stroke:pink;stroke-width:5"/>
<rect x="500" y="100" width="100" height="100" fill="blue" style="fill:blue;stroke:pink;stroke-width:5"/>
<rect x="600" y="100" width="100" height="100" fill="blue" style="fill:blue;stroke:pink;stroke-width:5"/>
<rect x="700" y="100" width="100" height="100" fill="blue" style="fill:blue;stroke:pink;stroke-width:5"/>
<rect x="800" y="100" width="100" height="100" fill="blue" style="fill:blue;stroke:pink;stroke-width:5"/>
<rect x="900" y="100" width="100" height="100" fill="blue" style="fill:blue;stroke:pink;stroke-width:5"/>
<rect x="0" y="200" width="100" height="100" fill="blue" style="fill:blue;stroke:pink;stroke-width:5"/>
<rect x="100" y="200" width="100" height="100" fill="blue" style="fill:blue;stroke:pink;stroke-width:5"/>
<rect x="200" y="200" width="100" height="100" fill="blue" style="fill:blue;stroke:pink;stroke-width:5"/>
<rect x="300" y="200" width="100" height="100" fill="blue" style="fill:blue;stroke:pink;stroke-width:5"/>
<rect x="400" y="200" width="100" height="100" fill="blue" style="fill:blue;stroke:pink;stroke-width:5"/>
<rect x="500" y="200" width="100" height="100" fill="blue" style="fill:blue;stroke:pink;stroke-width:5"/>
<rect x="600" y="200" width="100" height="100" fill="blue" style="fill:blue;stroke:pink;stroke-width:5"/>
<rect x="700" y="200" width="100" height="100" fill="blue" style="fill:blue;stroke:pink;stroke-width:5"/>
<rect x="800" y="200" width="100" height="100" fill="blue" style="fill:blue;stroke:pink;stroke-width:5"/>
<rect x="900" y="200" width="100" height="100" fill="blue" style="fill:blue;stroke:pink;stroke-width:5"/>
<rect x="0" y="300" width="100" height="100" fill="blue" style="fill:blue;stroke:pink;stroke-width:5"/>
<rect x="100" y="300" width="100" height="100" fill="blue" style="fill:blue;stroke:pink;stroke-width:5"/>
<rect x="200" y="300" width="100" height="100" fill="blue" style="fill:blue;stroke:pink;stroke-width:5"/>
<rect x="300" y="300" width="100" height="100" fill="blue" style="fill:blue;stroke:pink;stroke-width:5"/>
<rect x="400" y="300" width="100" height="100" fill="blue" style="fill:blue;stroke:pink;stroke-width:5"/>
<rect x="500" y="300" width="100" height="100" fill="blue" style="fill:blue;stroke:pink;stroke-width:5"/>
<rect x="600" y="300" width="100" height="100" fill="blue" style="fill:blue;stroke:pink;stroke-width:5"/>
<rect x="700" y="300" width="100" height="100" fill="blue" style="fill:blue;stroke:pink;stroke-width:5"/>
<rect x="800" y="300" width="100" height="100" fill="blue" style="fill:blue;stroke:pink;stroke-width:5"/>
<rect x="900" y="300" width="100" height="100" fill="blue" style="fill:blue;stroke:pink;stroke-width:5"/>
<rect x="0" y="400" width="100" height="100" fill="blue" style="fill:blue;stroke:pink;stroke-width:5"/>
<rect x="100" y="400" width="100" height="100" fill="blue" style="fill:blue;stroke:pink;stroke-width:5"/>
<rect x="200" y="400" width="100" height="100" fill="blue" style="fill:blue;stroke:pink;stroke-width:5"/>
<rect x="300" y="400" width="100" height="100" fill="blue" style="fill:blue;stroke:pink;stroke-width:5"/>
<rect x="400" y="400" width="100" height="100" fill="blue" style="fill:blue;stroke:pink;stroke-width:5"/>
<rect x="500" y="400" width="100" height="100" fill="blue" style="fill:blue;stroke:pink;stroke-width:5"/>
<rect x="600" y="400" width="100" height="100" fill="blue" style="fill:blue;stroke:pink;stroke-width:5"/>
<rect x="700" y="400" width="100" height="100" fill="blue" style="fill:blue;stroke:pink;stroke-width:5"/>
<rect x="800" y="400" width="100" height="100" fill="blue" style="fill:blue;stroke:pink;stroke-width:5"/>
<rect x="900" y="400" width="100" height="100" fill="blue" style="fill:blue;stroke:pink;stroke-width:5"/>
<rect x="0" y="500" width="100" height="100" fill="blue" style="fill:blue;stroke:pink;stroke-width:5"/>
<rect x="100" y="500" width="100" height="100" fill="blue" style="fill:blue;stroke:pink;stroke-width:5"/>
<rect x="200" y="500" width="100" height="100" fill="blue" style="fill:blue;stroke:pink;stroke-width:5"/>
<rect x="300" y="500" width="100" height="100" fill="blue" style="fill:blue;stroke:pink;stroke-width:5"/>
<rect x="400" y="500" width="100" height="100" fill="blue" style="fill:blue;stroke:pink;stroke-width:5"/>
<rect x="500" y="500" width="100" height="100" fill="blue" style="fill:blue;stroke:pink;stroke-width:5"/>
<rect x="600" y="500" width="100" height="100" fill="blue" style="fill:blue;stroke:pink;stroke-width:5"/>
<rect x="700" y="500" width="100" height="100" fill="blue" style="fill:blue;stroke:pink;stroke-width:5"/>
<rect x="800" y="500" width="100" height="100" fill="blue" style="fill:blue;stroke:pink;stroke-width:5"/>
<rect x="900" y="500" width="100" height="100" fill="blue" style="fill:blue;stroke:pink;stroke-width:5"/>
<rect x="0" y="600" width="100" height="100" fill="blue" style="fill:blue;stroke:pink;stroke-width:5"/>
<rect x="100" y="600" width="100" height="100" fill="blue" style="fill:blue;stroke:pink;stroke-width:5"/>
<rect x="200" y="600" width="100" height="100" fill="blue" style="fill:blue;stroke:pink;stroke-width:5"/>
<rect x="300" y="600" width="100" height="100" fill="blue" style="fill:blue;stroke:pink;stroke-width:5"/>
<rect x="400" y="600" width="100" height="100" fill="blue" style="fill:blue;stroke:pink;stroke-width:5"/>
<rect x="500" y="600" width="100" height="100" fill="blue" style="fill:blue;stroke:pink;stroke-width:5"/>
<rect x="600" y="600" width="100" height="100" fill="blue" style="fill:blue;stroke:pink;stroke-width:5"/>
<rect x="700" y="600" width="100" height="100" fill="blue" style="fill:blue;stroke:pink;stroke-width:5"/>
<rect x="800" y="600" width="100" height="100" fill="blue" style="fill:blue;stroke:pink;stroke-width:5"/>
<rect x="900" y="600" width="100" height="100" fill="blue" style="fill:blue;stroke:pink;stroke-width:5"/>
<rect x="0" y="700" width="100" height="100" fill="blue" style="fill:blue;stroke:pink;stroke-width:5"/>
<rect x="100" y="700" width="100" height="100" fill="blue" style="fill:blue;stroke:pink;stroke-width:5"/>
<rect x="200" y="700" width="100" height="100" fill="blue" style="fill:blue;stroke:pink;stroke-width:5"/>
<rect x="300" y="700" width="100" height="100" fill="blue" style="fill:blue;stroke:pink;stroke-width:5"/>
<rect x="400" y="700" width="100" height="100" fill="blue" style="fill:blue;stroke:pink;stroke-width:5"/>
<rect x="500" y="700" width="100" height="100" fill="blue" style="fill:blue;stroke:pink;stroke-width:5"/>
<rect x="600" y="700" width="100" height="100" fill="blue" style="fill:blue;stroke:pink;stroke-width:5"/>
<rect x="700" y="700" width="100" height="100" fill="blue" style="fill:blue;stroke:pink;stroke-width:5"/>
<rect x="800" y="700" width="100" height="100" fill="blue" style="fill:blue;stroke:pink;stroke-width:5"/>
<rect x="900" y="700" width="100" height="100" fill="blue" style="fill:blue;stroke:pink;stroke-width:5"/>
<rect x="0" y="800" width="100" height="100" fill="blue" style="fill:blue;stroke:pink;stroke-width:5"/>
<rect x="100" y="800" width="100" height="100" fill="blue" style="fill:blue;stroke:pink;stroke-width:5"/>
<rect x="200" y="800" width="100" height="100" fill="blue" style="fill:blue;stroke:pink;stroke-width:5"/>
<rect x="300" y="800" width="100" height="100" fill="blue" style="fill:blue;stroke:pink;stroke-width:5"/>
<rect x="400" y="800" width="100" height="100" fill="blue" style="fill:blue;stroke:pink;stroke-width:5"/>
<rect x="500" y="800" width="100" height="100" fill="blue" style="fill:blue;stroke:pink;stroke-width:5"/>
<rect x="600" y="800" width="100" height="100" fill="blue" style="fill:blue;stroke:pink;stroke-width:5"/>
<rect x="700" y="800" width="100" height="100" fill="blue" style="fill:blue;stroke:pink;stroke-width:5"/>
<rect x="800" y="800" width="100" height="100" fill="blue" style="fill:blue;stroke:pink;stroke-width:5"/>
<rect x="900" y="800" width="100" height="100" fill="blue" style="fill:blue;stroke:pink;stroke-width:5"/>
<rect x="0" y="900" width="100" height="100" fill="blue" style="fill:blue;stroke:pink;stroke-width:5"/>
<rect x="100" y="900" width="100" height="100" fill="blue" style="fill:blue;stroke:pink;stroke-width:5"/>
<rect x="200" y="900" width="100" height="100" fill="blue" style="fill:blue;stroke:pink;stroke-width:5"/>
<rect x="300" y="900" width="100" height="100" fill="blue" style="fill:blue;stroke:pink;stroke-width:5"/>
<rect x="400" y="900" width="100" height="100" fill="blue" style="fill:blue;stroke:pink;stroke-width:5"/>
<rect x="500" y="900" width="100" height="100" fill="blue" style="fill:blue;stroke:pink;stroke-width:5"/>
<rect x="600" y="900" width="100" height="100" fill="blue" style="fill:blue;stroke:pink;stroke-width:5"/>
<rect x="700" y="900" width="100" height="100" fill="blue" style="fill:blue;stroke:pink;stroke-width:5"/>
<rect x="800" y="900" width="100" height="100" fill="blue" style="fill:blue;stroke:pink;stroke-width:5"/>
<rect x="900" y="900" width="100" height="100" fill="blue" style="fill:blue;stroke:pink;stroke-width:5"/>
</svg>