<svg version="1.1" 
 baseProfile="full" 
 width="1000" height="1000" 
 xmlns="http://www.w3.org/2000/svg">
 <polygon points="500,0 0,866.025 1000,866.025" fill="red"/> 
<rect x="450" y="86.6025" width="100" height="100" fill="blue" style="fill:blue;stroke:pink;stroke-width:5"/>
<rect x="392.265" y="186.603" width="100" height="100" fill="blue" style="fill:blue;stroke:pink;stroke-width:5"/>
<rect x="492.265" y="186.603" width="100" height="100" fill="blue" style="fill:blue;stroke:pink;stroke-width:5"/>
<rect x="334.53" y="286.603" width="100" height="100" fill="blue" style="fill:blue;stroke:pink;stroke-width:5"/>
<rect x="434.53" y="286.603" width="100" height="100" fill="blue" style="fill:blue;stroke:pink;stroke-width:5"/>
<rect x="534.53" y="286.603" width="100" height="100" fill="blue" style="fill:blue;stroke:pink;stroke-width:5"/>
<rect x="276.795" y="386.603" width="100" height="100" fill="blue" style="fill:blue;stroke:pink;stroke-width:5"/>
<rect x="376.795" y="386.603" width="100" height="100" fill="blue" style="fill:blue;stroke:pink;stroke-width:5"/>
<rect x="476.795" y="386.603" width="100" height="100" fill="blue" style="fill:blue;stroke:pink;stroke-width:5"/>
<rect x="576.795" y="386.603" width="100" height="100" fill="blue" style="fill:blue;stroke:pink;stroke-width:5"/>
<rect x="219.06" y="486.603" width="100" height="100" fill="blue" style="fill:blue;stroke:pink;stroke-width:5"/>
<rect x="319.06" y="486.603" width="100" height="100" fill="blue" style="fill:blue;stroke:pink;stroke-width:5"/>
<rect x="419.06" y="486.603" width="100" height="100" fill="blue" style="fill:blue;stroke:pink;stroke-width:5"/>
<rect x="519.06" y="486.603" width="100" height="100" fill="blue" style="fill:blue;stroke:pink;stroke-width:5"/>
<rect x="619.06" y="486.603" width="100" height="100" fill="blue" style="fill:blue;stroke:pink;stroke-width:5"/>
<rect x="161.325" y="586.603" width="100" height="100" fill="blue" style="fill:blue;stroke:pink;stroke-width:5"/>
<rect x="261.325" y="586.603" width="100" height="100" fill="blue" style="fill:blue;stroke:pink;stroke-width:5"/>
<rect x="361.325" y="586.603" width="100" height="100" fill="blue" style="fill:blue;stroke:pink;stroke-width:5"/>
<rect x="461.325" y="586.603" width="100" height="100" fill="blue" style="fill:blue;stroke:pink;stroke-width:5"/>
<rect x="561.325" y="586.603" width="100" height="100" fill="blue" style="fill:blue;stroke:pink;stroke-width:5"/>
<rect x="661.325" y="586.603" width="100" height="100" fill="blue" style="fill:blue;stroke:pink;stroke-width:5"/>
<rect x="103.59" y="686.603" width="100" height="100" fill="blue" style="fill:blue;stroke:pink;stroke-width:5"/>
<rect x="203.59" y="686.603" width="100" height="100" fill="blue" style="fill:blue;stroke:pink;stroke-width:5"/>
<rect x="303.59" y="686.603" width="100" height="100" fill="blue" style="fill:blue;stroke:pink;stroke-width:5"/>
<rect x="403.59" y="686.603" width="100" height="100" fill="blue" style="fill:blue;stroke:pink;stroke-width:5"/>
<rect x="503.59" y="686.603" width="100" height="100" fill="blue" style="fill:blue;stroke:pink;stroke-width:5"/>
<rect x="603.59" y="686.603" width="100" height="100" fill="blue" style="fill:blue;stroke:pink;stroke-width:5"/>
<rect x="703.59" y="686.603" width="100" height="100" fill="blue" style="fill:blue;stroke:pink;stroke-width:5"/>
</svg>