<svg version="1.1" 
 baseProfile="full" 
 width="1000" height="1000" 
 xmlns="http://www.w3.org/2000/svg">
<rect width="100%" height="100%" fill="red" />
 <circle cx="100" cy="50" r="50" fill="blue" /> 
 <circle cx="200" cy="50" r="50" fill="blue" /> 
 <circle cx="300" cy="50" r="50" fill="blue" /> 
 <circle cx="400" cy="50" r="50" fill="blue" /> 
 <circle cx="500" cy="50" r="50" fill="blue" /> 
 <circle cx="600" cy="50" r="50" fill="blue" /> 
 <circle cx="700" cy="50" r="50" fill="blue" /> 
 <circle cx="800" cy="50" r="50" fill="blue" /> 
 <circle cx="900" cy="50" r="50" fill="blue" /> 
 <circle cx="50" cy="136" r="50" fill="blue" /> 
 <circle cx="150" cy="136" r="50" fill="blue" /> 
 <circle cx="250" cy="136" r="50" fill="blue" /> 
 <circle cx="350" cy="136" r="50" fill="blue" /> 
 <circle cx="450" cy="136" r="50" fill="blue" /> 
 <circle cx="550" cy="136" r="50" fill="blue" /> 
 <circle cx="650" cy="136" r="50" fill="blue" /> 
 <circle cx="750" cy="136" r="50" fill="blue" /> 
 <circle cx="850" cy="136" r="50" fill="blue" /> 
 <circle cx="950" cy="136" r="50" fill="blue" /> 
 <circle cx="100" cy="222" r="50" fill="blue" /> 
 <circle cx="200" cy="222" r="50" fill="blue" /> 
 <circle cx="300" cy="222" r="50" fill="blue" /> 
 <circle cx="400" cy="222" r="50" fill="blue" /> 
 <circle cx="500" cy="222" r="50" fill="blue" /> 
 <circle cx="600" cy="222" r="50" fill="blue" /> 
 <circle cx="700" cy="222" r="50" fill="blue" /> 
 <circle cx="800" cy="222" r="50" fill="blue" /> 
 <circle cx="900" cy="222" r="50" fill="blue" /> 
 <circle cx="50" cy="308" r="50" fill="blue" /> 
 <circle cx="150" cy="308" r="50" fill="blue" /> 
 <circle cx="250" cy="308" r="50" fill="blue" /> 
 <circle cx="350" cy="308" r="50" fill="blue" /> 
 <circle cx="450" cy="308" r="50" fill="blue" /> 
 <circle cx="550" cy="308" r="50" fill="blue" /> 
 <circle cx="650" cy="308" r="50" fill="blue" /> 
 <circle cx="750" cy="308" r="50" fill="blue" /> 
 <circle cx="850" cy="308" r="50" fill="blue" /> 
 <circle cx="950" cy="308" r="50" fill="blue" /> 
 <circle cx="100" cy="394" r="50" fill="blue" /> 
 <circle cx="200" cy="394" r="50" fill="blue" /> 
 <circle cx="300" cy="394" r="50" fill="blue" /> 
 <circle cx="400" cy="394" r="50" fill="blue" /> 
 <circle cx="500" cy="394" r="50" fill="blue" /> 
 <circle cx="600" cy="394" r="50" fill="blue" /> 
 <circle cx="700" cy="394" r="50" fill="blue" /> 
 <circle cx="800" cy="394" r="50" fill="blue" /> 
 <circle cx="900" cy="394" r="50" fill="blue" /> 
 <circle cx="50" cy="480" r="50" fill="blue" /> 
 <circle cx="150" cy="480" r="50" fill="blue" /> 
 <circle cx="250" cy="480" r="50" fill="blue" /> 
 <circle cx="350" cy="480" r="50" fill="blue" /> 
 <circle cx="450" cy="480" r="50" fill="blue" /> 
 <circle cx="550" cy="480" r="50" fill="blue" /> 
 <circle cx="650" cy="480" r="50" fill="blue" /> 
 <circle cx="750" cy="480" r="50" fill="blue" /> 
 <circle cx="850" cy="480" r="50" fill="blue" /> 
 <circle cx="950" cy="480" r="50" fill="blue" /> 
 <circle cx="100" cy="566" r="50" fill="blue" /> 
 <circle cx="200" cy="566" r="50" fill="blue" /> 
 <circle cx="300" cy="566" r="50" fill="blue" /> 
 <circle cx="400" cy="566" r="50" fill="blue" /> 
 <circle cx="500" cy="566" r="50" fill="blue" /> 
 <circle cx="600" cy="566" r="50" fill="blue" /> 
 <circle cx="700" cy="566" r="50" fill="blue" /> 
 <circle cx="800" cy="566" r="50" fill="blue" /> 
 <circle cx="900" cy="566" r="50" fill="blue" /> 
 <circle cx="50" cy="652" r="50" fill="blue" /> 
 <circle cx="150" cy="652" r="50" fill="blue" /> 
 <circle cx="250" cy="652" r="50" fill="blue" /> 
 <circle cx="350" cy="652" r="50" fill="blue" /> 
 <circle cx="450" cy="652" r="50" fill="blue" /> 
 <circle cx="550" cy="652" r="50" fill="blue" /> 
 <circle cx="650" cy="652" r="50" fill="blue" /> 
 <circle cx="750" cy="652" r="50" fill="blue" /> 
 <circle cx="850" cy="652" r="50" fill="blue" /> 
 <circle cx="950" cy="652" r="50" fill="blue" /> 
 <circle cx="100" cy="738" r="50" fill="blue" /> 
 <circle cx="200" cy="738" r="50" fill="blue" /> 
 <circle cx="300" cy="738" r="50" fill="blue" /> 
 <circle cx="400" cy="738" r="50" fill="blue" /> 
 <circle cx="500" cy="738" r="50" fill="blue" /> 
 <circle cx="600" cy="738" r="50" fill="blue" /> 
 <circle cx="700" cy="738" r="50" fill="blue" /> 
 <circle cx="800" cy="738" r="50" fill="blue" /> 
 <circle cx="900" cy="738" r="50" fill="blue" /> 
 <circle cx="50" cy="824" r="50" fill="blue" /> 
 <circle cx="150" cy="824" r="50" fill="blue" /> 
 <circle cx="250" cy="824" r="50" fill="blue" /> 
 <circle cx="350" cy="824" r="50" fill="blue" /> 
 <circle cx="450" cy="824" r="50" fill="blue" /> 
 <circle cx="550" cy="824" r="50" fill="blue" /> 
 <circle cx="650" cy="824" r="50" fill="blue" /> 
 <circle cx="750" cy="824" r="50" fill="blue" /> 
 <circle cx="850" cy="824" r="50" fill="blue" /> 
 <circle cx="950" cy="824" r="50" fill="blue" /> 
 <circle cx="100" cy="910" r="50" fill="blue" /> 
 <circle cx="200" cy="910" r="50" fill="blue" /> 
 <circle cx="300" cy="910" r="50" fill="blue" /> 
 <circle cx="400" cy="910" r="50" fill="blue" /> 
 <circle cx="500" cy="910" r="50" fill="blue" /> 
 <circle cx="600" cy="910" r="50" fill="blue" /> 
 <circle cx="700" cy="910" r="50" fill="blue" /> 
 <circle cx="800" cy="910" r="50" fill="blue" /> 
 <circle cx="900" cy="910" r="50" fill="blue" /> 
</svg>