<svg version="1.1" 
 baseProfile="full" 
 width="2000" height="2000" 
 xmlns="http://www.w3.org/2000/svg">
 <circle cx="1000" cy="1000" r="1000" fill="red" /> 
 <circle cx="1099.86" cy="55.2632" r="50" fill="blue" /> 
 <circle cx="1198.62" cy="70.9943" r="50" fill="blue" /> 
 <circle cx="1295.17" cy="97.0192" r="50" fill="blue" /> 
 <circle cx="1388.45" cy="133.049" r="50" fill="blue" /> 
 <circle cx="1477.43" cy="178.686" r="50" fill="blue" /> 
 <circle cx="1561.12" cy="233.422" r="50" fill="blue" /> 
 <circle cx="1638.59" cy="296.653" r="50" fill="blue" /> 
 <circle cx="1708.99" cy="367.677" r="50" fill="blue" /> 
 <circle cx="1771.53" cy="445.707" r="50" fill="blue" /> 
 <circle cx="1825.52" cy="529.879" r="50" fill="blue" /> 
 <circle cx="1870.37" cy="619.26" r="50" fill="blue" /> 
 <circle cx="1905.57" cy="712.86" r="50" fill="blue" /> 
 <circle cx="1930.73" cy="809.642" r="50" fill="blue" /> 
 <circle cx="1945.59" cy="908.533" r="50" fill="blue" /> 
 <circle cx="1949.96" cy="1008.44" r="50" fill="blue" /> 
 <circle cx="1943.81" cy="1108.25" r="50" fill="blue" /> 
 <circle cx="1927.21" cy="1206.86" r="50" fill="blue" /> 
 <circle cx="1900.32" cy="1303.18" r="50" fill="blue" /> 
 <circle cx="1863.47" cy="1396.14" r="50" fill="blue" /> 
 <circle cx="1817.04" cy="1484.71" r="50" fill="blue" /> 
 <circle cx="1761.56" cy="1567.91" r="50" fill="blue" /> 
 <circle cx="1697.65" cy="1644.82" r="50" fill="blue" /> 
 <circle cx="1626" cy="1714.58" r="50" fill="blue" /> 
 <circle cx="1547.42" cy="1776.42" r="50" fill="blue" /> 
 <circle cx="1462.77" cy="1829.66" r="50" fill="blue" /> 
 <circle cx="1372.99" cy="1873.71" r="50" fill="blue" /> 
 <circle cx="1279.09" cy="1908.08" r="50" fill="blue" /> 
 <circle cx="1182.08" cy="1932.39" r="50" fill="blue" /> 
 <circle cx="1083.07" cy="1946.36" r="50" fill="blue" /> 
 <circle cx="983.127" cy="1949.85" r="50" fill="blue" /> 
 <circle cx="883.375" cy="1942.81" r="50" fill="blue" /> 
 <circle cx="784.915" cy="1925.33" r="50" fill="blue" /> 
 <circle cx="688.838" cy="1897.6" r="50" fill="blue" /> 
 <circle cx="596.209" cy="1859.91" r="50" fill="blue" /> 
 <circle cx="508.055" cy="1812.71" r="50" fill="blue" /> 
 <circle cx="425.351" cy="1756.49" r="50" fill="blue" /> 
 <circle cx="349.014" cy="1691.89" r="50" fill="blue" /> 
 <circle cx="279.891" cy="1619.63" r="50" fill="blue" /> 
 <circle cx="218.746" cy="1540.5" r="50" fill="blue" /> 
 <circle cx="166.258" cy="1455.38" r="50" fill="blue" /> 
 <circle cx="123.009" cy="1365.22" r="50" fill="blue" /> 
 <circle cx="89.4764" cy="1271.01" r="50" fill="blue" /> 
 <circle cx="66.033" cy="1173.8" r="50" fill="blue" /> 
 <circle cx="52.9382" cy="1074.66" r="50" fill="blue" /> 
 <circle cx="50.3372" cy="974.692" r="50" fill="blue" /> 
 <circle cx="58.2587" cy="875.007" r="50" fill="blue" /> 
 <circle cx="76.6151" cy="776.706" r="50" fill="blue" /> 
 <circle cx="105.203" cy="680.879" r="50" fill="blue" /> 
 <circle cx="143.705" cy="588.589" r="50" fill="blue" /> 
 <circle cx="191.696" cy="500.857" r="50" fill="blue" /> 
 <circle cx="248.642" cy="418.655" r="50" fill="blue" /> 
 <circle cx="313.915" cy="342.895" r="50" fill="blue" /> 
 <circle cx="386.789" cy="274.416" r="50" fill="blue" /> 
 <circle cx="466.457" cy="213.977" r="50" fill="blue" /> 
 <circle cx="552.038" cy="162.247" r="50" fill="blue" /> 
 <circle cx="642.582" cy="119.8" r="50" fill="blue" /> 
 <circle cx="737.086" cy="87.1055" r="50" fill="blue" /> 
 <circle cx="834.504" cy="64.5263" r="50" fill="blue" /> 
 <circle cx="933.755" cy="52.3125" r="50" fill="blue" /> 
 <circle cx="1099.83" cy="155.882" r="50" fill="blue" /> 
 <circle cx="1198.27" cy="173.448" r="50" fill="blue" /> 
 <circle cx="1293.97" cy="202.454" r="50" fill="blue" /> 
 <circle cx="1385.6" cy="242.498" r="50" fill="blue" /> 
 <circle cx="1471.9" cy="293.027" r="50" fill="blue" /> 
 <circle cx="1551.66" cy="353.341" r="50" fill="blue" /> 
 <circle cx="1623.79" cy="422.606" r="50" fill="blue" /> 
 <circle cx="1687.29" cy="499.862" r="50" fill="blue" /> 
 <circle cx="1741.27" cy="584.04" r="50" fill="blue" /> 
 <circle cx="1784.99" cy="673.975" r="50" fill="blue" /> 
 <circle cx="1817.85" cy="768.423" r="50" fill="blue" /> 
 <circle cx="1839.38" cy="866.077" r="50" fill="blue" /> 
 <circle cx="1849.3" cy="965.583" r="50" fill="blue" /> 
 <circle cx="1847.47" cy="1065.57" r="50" fill="blue" /> 
 <circle cx="1833.9" cy="1164.64" r="50" fill="blue" /> 
 <circle cx="1808.8" cy="1261.44" r="50" fill="blue" /> 
 <circle cx="1772.49" cy="1354.62" r="50" fill="blue" /> 
 <circle cx="1725.5" cy="1442.89" r="50" fill="blue" /> 
 <circle cx="1668.47" cy="1525.03" r="50" fill="blue" /> 
 <circle cx="1602.18" cy="1599.9" r="50" fill="blue" /> 
 <circle cx="1527.56" cy="1666.47" r="50" fill="blue" /> 
 <circle cx="1445.63" cy="1723.82" r="50" fill="blue" /> 
 <circle cx="1357.54" cy="1771.14" r="50" fill="blue" /> 
 <circle cx="1264.5" cy="1807.8" r="50" fill="blue" /> 
 <circle cx="1167.8" cy="1833.27" r="50" fill="blue" /> 
 <circle cx="1068.78" cy="1847.21" r="50" fill="blue" /> 
 <circle cx="968.801" cy="1849.43" r="50" fill="blue" /> 
 <circle cx="869.258" cy="1839.88" r="50" fill="blue" /> 
 <circle cx="771.523" cy="1818.72" r="50" fill="blue" /> 
 <circle cx="676.952" cy="1786.22" r="50" fill="blue" /> 
 <circle cx="586.851" cy="1742.84" r="50" fill="blue" /> 
 <circle cx="502.469" cy="1689.18" r="50" fill="blue" /> 
 <circle cx="424.973" cy="1625.97" r="50" fill="blue" /> 
 <circle cx="355.436" cy="1554.11" r="50" fill="blue" /> 
 <circle cx="294.82" cy="1474.57" r="50" fill="blue" /> 
 <circle cx="243.965" cy="1388.47" r="50" fill="blue" /> 
 <circle cx="203.573" cy="1296.99" r="50" fill="blue" /> 
 <circle cx="174.205" cy="1201.4" r="50" fill="blue" /> 
 <circle cx="156.267" cy="1103.02" r="50" fill="blue" /> 
 <circle cx="150.006" cy="1003.22" r="50" fill="blue" /> 
 <circle cx="155.51" cy="903.372" r="50" fill="blue" /> 
 <circle cx="172.703" cy="804.861" r="50" fill="blue" /> 
 <circle cx="201.346" cy="709.051" r="50" fill="blue" /> 
 <circle cx="241.043" cy="617.268" r="50" fill="blue" /> 
 <circle cx="291.245" cy="530.782" r="50" fill="blue" /> 
 <circle cx="351.256" cy="450.79" r="50" fill="blue" /> 
 <circle cx="420.247" cy="378.4" r="50" fill="blue" /> 
 <circle cx="497.261" cy="314.614" r="50" fill="blue" /> 
 <circle cx="581.235" cy="260.314" r="50" fill="blue" /> 
 <circle cx="671.004" cy="216.252" r="50" fill="blue" /> 
 <circle cx="765.327" cy="183.037" r="50" fill="blue" /> 
 <circle cx="862.898" cy="161.13" r="50" fill="blue" /> 
 <circle cx="962.366" cy="150.834" r="50" fill="blue" /> 
 <circle cx="1099.78" cy="256.667" r="50" fill="blue" /> 
 <circle cx="1197.78" cy="276.548" r="50" fill="blue" /> 
 <circle cx="1292.27" cy="309.291" r="50" fill="blue" /> 
 <circle cx="1381.56" cy="354.313" r="50" fill="blue" /> 
 <circle cx="1464.07" cy="410.814" r="50" fill="blue" /> 
 <circle cx="1538.33" cy="477.79" r="50" fill="blue" /> 
 <circle cx="1603.02" cy="554.049" r="50" fill="blue" /> 
 <circle cx="1656.98" cy="638.236" r="50" fill="blue" /> 
 <circle cx="1699.27" cy="728.854" r="50" fill="blue" /> 
 <circle cx="1729.13" cy="824.293" r="50" fill="blue" /> 
 <circle cx="1746.02" cy="922.856" r="50" fill="blue" /> 
 <circle cx="1749.65" cy="1022.79" r="50" fill="blue" /> 
 <circle cx="1739.96" cy="1122.32" r="50" fill="blue" /> 
 <circle cx="1717.11" cy="1219.67" r="50" fill="blue" /> 
 <circle cx="1681.51" cy="1313.12" r="50" fill="blue" /> 
 <circle cx="1633.79" cy="1401" r="50" fill="blue" /> 
 <circle cx="1574.81" cy="1481.76" r="50" fill="blue" /> 
 <circle cx="1505.61" cy="1553.95" r="50" fill="blue" /> 
 <circle cx="1427.42" cy="1616.29" r="50" fill="blue" /> 
 <circle cx="1341.63" cy="1667.67" r="50" fill="blue" /> 
 <circle cx="1249.77" cy="1707.19" r="50" fill="blue" /> 
 <circle cx="1153.47" cy="1734.13" r="50" fill="blue" /> 
 <circle cx="1054.44" cy="1748.02" r="50" fill="blue" /> 
 <circle cx="954.441" cy="1748.61" r="50" fill="blue" /> 
 <circle cx="855.253" cy="1735.9" r="50" fill="blue" /> 
 <circle cx="758.638" cy="1710.1" r="50" fill="blue" /> 
 <circle cx="666.314" cy="1671.68" r="50" fill="blue" /> 
 <circle cx="579.922" cy="1621.32" r="50" fill="blue" /> 
 <circle cx="500.998" cy="1559.91" r="50" fill="blue" /> 
 <circle cx="430.945" cy="1488.55" r="50" fill="blue" /> 
 <circle cx="371.009" cy="1408.5" r="50" fill="blue" /> 
 <circle cx="322.255" cy="1321.19" r="50" fill="blue" /> 
 <circle cx="285.549" cy="1228.17" r="50" fill="blue" /> 
 <circle cx="261.545" cy="1131.09" r="50" fill="blue" /> 
 <circle cx="250.67" cy="1031.68" r="50" fill="blue" /> 
 <circle cx="253.115" cy="931.714" r="50" fill="blue" /> 
 <circle cx="268.839" cy="832.958" r="50" fill="blue" /> 
 <circle cx="297.56" cy="737.172" r="50" fill="blue" /> 
 <circle cx="338.77" cy="646.058" r="50" fill="blue" /> 
 <circle cx="391.735" cy="561.236" r="50" fill="blue" /> 
 <circle cx="455.514" cy="484.215" r="50" fill="blue" /> 
 <circle cx="528.972" cy="416.363" r="50" fill="blue" /> 
 <circle cx="610.804" cy="358.887" r="50" fill="blue" /> 
 <circle cx="699.555" cy="312.808" r="50" fill="blue" /> 
 <circle cx="793.647" cy="278.946" r="50" fill="blue" /> 
 <circle cx="891.408" cy="257.903" r="50" fill="blue" /> 
 <circle cx="991.1" cy="250.053" r="50" fill="blue" /> 
 <circle cx="1099.7" cy="357.692" r="50" fill="blue" /> 
 <circle cx="1197.05" cy="380.587" r="50" fill="blue" /> 
 <circle cx="1289.73" cy="418.143" r="50" fill="blue" /> 
 <circle cx="1375.55" cy="469.47" r="50" fill="blue" /> 
 <circle cx="1452.48" cy="533.354" r="50" fill="blue" /> 
 <circle cx="1518.71" cy="608.283" r="50" fill="blue" /> 
 <circle cx="1572.66" cy="692.484" r="50" fill="blue" /> 
 <circle cx="1613.05" cy="783.963" r="50" fill="blue" /> 
 <circle cx="1638.93" cy="880.555" r="50" fill="blue" /> 
 <circle cx="1649.69" cy="979.974" r="50" fill="blue" /> 
 <circle cx="1645.07" cy="1079.87" r="50" fill="blue" /> 
 <circle cx="1625.19" cy="1177.87" r="50" fill="blue" /> 
 <circle cx="1590.51" cy="1271.66" r="50" fill="blue" /> 
 <circle cx="1541.85" cy="1359.03" r="50" fill="blue" /> 
 <circle cx="1480.36" cy="1437.89" r="50" fill="blue" /> 
 <circle cx="1407.51" cy="1506.39" r="50" fill="blue" /> 
 <circle cx="1325.01" cy="1562.91" r="50" fill="blue" /> 
 <circle cx="1234.82" cy="1606.1" r="50" fill="blue" /> 
 <circle cx="1139.07" cy="1634.95" r="50" fill="blue" /> 
 <circle cx="1040.03" cy="1648.77" r="50" fill="blue" /> 
 <circle cx="940.044" cy="1647.23" r="50" fill="blue" /> 
 <circle cx="841.475" cy="1630.37" r="50" fill="blue" /> 
 <circle cx="746.658" cy="1598.6" r="50" fill="blue" /> 
 <circle cx="657.837" cy="1552.65" r="50" fill="blue" /> 
 <circle cx="577.115" cy="1493.63" r="50" fill="blue" /> 
 <circle cx="506.402" cy="1422.92" r="50" fill="blue" /> 
 <circle cx="447.371" cy="1342.2" r="50" fill="blue" /> 
 <circle cx="401.421" cy="1253.38" r="50" fill="blue" /> 
 <circle cx="369.638" cy="1158.57" r="50" fill="blue" /> 
 <circle cx="352.775" cy="1060" r="50" fill="blue" /> 
 <circle cx="351.231" cy="960.013" r="50" fill="blue" /> 
 <circle cx="365.043" cy="860.971" r="50" fill="blue" /> 
 <circle cx="393.883" cy="765.22" r="50" fill="blue" /> 
 <circle cx="437.068" cy="675.026" r="50" fill="blue" /> 
 <circle cx="493.578" cy="592.524" r="50" fill="blue" /> 
 <circle cx="562.074" cy="519.666" r="50" fill="blue" /> 
 <circle cx="640.936" cy="458.176" r="50" fill="blue" /> 
 <circle cx="728.295" cy="409.512" r="50" fill="blue" /> 
 <circle cx="822.086" cy="374.823" r="50" fill="blue" /> 
 <circle cx="920.088" cy="354.931" r="50" fill="blue" /> 
 <circle cx="1099.59" cy="459.091" r="50" fill="blue" /> 
 <circle cx="1195.88" cy="486.063" r="50" fill="blue" /> 
 <circle cx="1285.7" cy="530.025" r="50" fill="blue" /> 
 <circle cx="1366.07" cy="589.523" r="50" fill="blue" /> 
 <circle cx="1434.34" cy="662.591" r="50" fill="blue" /> 
 <circle cx="1488.26" cy="746.813" r="50" fill="blue" /> 
 <circle cx="1526.03" cy="839.404" r="50" fill="blue" /> 
 <circle cx="1546.41" cy="937.305" r="50" fill="blue" /> 
 <circle cx="1548.74" cy="1037.28" r="50" fill="blue" /> 
 <circle cx="1532.92" cy="1136.02" r="50" fill="blue" /> 
 <circle cx="1499.48" cy="1230.26" r="50" fill="blue" /> 
 <circle cx="1449.53" cy="1316.9" r="50" fill="blue" /> 
 <circle cx="1384.72" cy="1393.05" r="50" fill="blue" /> 
 <circle cx="1307.19" cy="1456.21" r="50" fill="blue" /> 
 <circle cx="1219.51" cy="1504.3" r="50" fill="blue" /> 
 <circle cx="1124.57" cy="1535.71" r="50" fill="blue" /> 
 <circle cx="1025.52" cy="1549.41" r="50" fill="blue" /> 
 <circle cx="925.616" cy="1544.95" r="50" fill="blue" /> 
 <circle cx="828.175" cy="1522.47" r="50" fill="blue" /> 
 <circle cx="736.413" cy="1482.72" r="50" fill="blue" /> 
 <circle cx="653.366" cy="1427.02" r="50" fill="blue" /> 
 <circle cx="581.777" cy="1357.2" r="50" fill="blue" /> 
 <circle cx="524.014" cy="1275.57" r="50" fill="blue" /> 
 <circle cx="481.986" cy="1184.83" r="50" fill="blue" /> 
 <circle cx="457.082" cy="1087.98" r="50" fill="blue" /> 
 <circle cx="450.126" cy="988.22" r="50" fill="blue" /> 
 <circle cx="461.348" cy="888.852" r="50" fill="blue" /> 
 <circle cx="490.376" cy="793.158" r="50" fill="blue" /> 
 <circle cx="536.252" cy="704.301" r="50" fill="blue" /> 
 <circle cx="597.458" cy="625.22" r="50" fill="blue" /> 
 <circle cx="671.971" cy="558.529" r="50" fill="blue" /> 
 <circle cx="757.328" cy="506.431" r="50" fill="blue" /> 
 <circle cx="850.707" cy="470.65" r="50" fill="blue" /> 
 <circle cx="949.022" cy="452.368" r="50" fill="blue" /> 
 <circle cx="1099.38" cy="561.111" r="50" fill="blue" /> 
 <circle cx="1193.85" cy="593.896" r="50" fill="blue" /> 
 <circle cx="1278.75" cy="646.735" r="50" fill="blue" /> 
 <circle cx="1349.89" cy="717.019" r="50" fill="blue" /> 
 <circle cx="1403.74" cy="801.278" r="50" fill="blue" /> 
 <circle cx="1437.66" cy="895.35" r="50" fill="blue" /> 
 <circle cx="1449.97" cy="994.59" r="50" fill="blue" /> 
 <circle cx="1440.05" cy="1094.1" r="50" fill="blue" /> 
 <circle cx="1408.41" cy="1188.96" r="50" fill="blue" /> 
 <circle cx="1356.59" cy="1274.49" r="50" fill="blue" /> 
 <circle cx="1287.17" cy="1346.46" r="50" fill="blue" /> 
 <circle cx="1203.56" cy="1401.33" r="50" fill="blue" /> 
 <circle cx="1109.9" cy="1436.37" r="50" fill="blue" /> 
 <circle cx="1010.82" cy="1449.87" r="50" fill="blue" /> 
 <circle cx="911.2" cy="1441.15" r="50" fill="blue" /> 
 <circle cx="815.966" cy="1410.65" r="50" fill="blue" /> 
 <circle cx="729.82" cy="1359.86" r="50" fill="blue" /> 
 <circle cx="657.016" cy="1291.31" r="50" fill="blue" /> 
 <circle cx="601.15" cy="1208.37" r="50" fill="blue" /> 
 <circle cx="564.98" cy="1115.14" r="50" fill="blue" /> 
 <circle cx="550.293" cy="1016.23" r="50" fill="blue" /> 
 <circle cx="557.813" cy="916.51" r="50" fill="blue" /> 
 <circle cx="587.17" cy="820.916" r="50" fill="blue" /> 
 <circle cx="636.913" cy="734.166" r="50" fill="blue" /> 
 <circle cx="704.587" cy="660.543" r="50" fill="blue" /> 
 <circle cx="786.849" cy="603.684" r="50" fill="blue" /> 
 <circle cx="879.637" cy="566.396" r="50" fill="blue" /> 
 <circle cx="978.369" cy="550.52" r="50" fill="blue" /> 
 <circle cx="1098.97" cy="664.286" r="50" fill="blue" /> 
 <circle cx="1189.87" cy="705.977" r="50" fill="blue" /> 
 <circle cx="1265.26" cy="771.67" r="50" fill="blue" /> 
 <circle cx="1319.01" cy="856.002" r="50" fill="blue" /> 
 <circle cx="1346.71" cy="952.089" r="50" fill="blue" /> 
 <circle cx="1346.1" cy="1052.09" r="50" fill="blue" /> 
 <circle cx="1317.25" cy="1147.83" r="50" fill="blue" /> 
 <circle cx="1262.49" cy="1231.51" r="50" fill="blue" /> 
 <circle cx="1186.31" cy="1296.29" r="50" fill="blue" /> 
 <circle cx="1094.92" cy="1336.88" r="50" fill="blue" /> 
 <circle cx="995.781" cy="1349.97" r="50" fill="blue" /> 
 <circle cx="896.986" cy="1334.5" r="50" fill="blue" /> 
 <circle cx="806.601" cy="1291.71" r="50" fill="blue" /> 
 <circle cx="732.003" cy="1225.12" r="50" fill="blue" /> 
 <circle cx="679.282" cy="1140.14" r="50" fill="blue" /> 
 <circle cx="652.742" cy="1043.73" r="50" fill="blue" /> 
 <circle cx="654.55" cy="943.745" r="50" fill="blue" /> 
 <circle cx="684.558" cy="848.354" r="50" fill="blue" /> 
 <circle cx="740.317" cy="765.342" r="50" fill="blue" /> 
 <circle cx="817.274" cy="701.485" r="50" fill="blue" /> 
 <circle cx="909.147" cy="661.997" r="50" fill="blue" /> 
 <circle cx="1097.98" cy="770" r="50" fill="blue" /> 
 <circle cx="1180.28" cy="826.8" r="50" fill="blue" /> 
 <circle cx="1233.74" cy="911.312" r="50" fill="blue" /> 
 <circle cx="1249.8" cy="1010.01" r="50" fill="blue" /> 
 <circle cx="1225.89" cy="1107.11" r="50" fill="blue" /> 
 <circle cx="1165.84" cy="1187.08" r="50" fill="blue" /> 
 <circle cx="1079.25" cy="1237.11" r="50" fill="blue" /> 
 <circle cx="979.988" cy="1249.2" r="50" fill="blue" /> 
 <circle cx="883.924" cy="1221.42" r="50" fill="blue" /> 
 <circle cx="806.432" cy="1158.21" r="50" fill="blue" /> 
 <circle cx="759.911" cy="1069.69" r="50" fill="blue" /> 
 <circle cx="751.804" cy="970.022" r="50" fill="blue" /> 
 <circle cx="783.408" cy="875.148" r="50" fill="blue" /> 
 <circle cx="849.668" cy="800.25" r="50" fill="blue" /> 
 <circle cx="939.98" cy="757.312" r="50" fill="blue" /> 
 <circle cx="1094.28" cy="883.333" r="50" fill="blue" /> 
 <circle cx="1146.66" cy="968.519" r="50" fill="blue" /> 
 <circle cx="1133.86" cy="1067.7" r="50" fill="blue" /> 
 <circle cx="1061.56" cy="1136.79" r="50" fill="blue" /> 
 <circle cx="961.905" cy="1145.08" r="50" fill="blue" /> 
 <circle cx="879.181" cy="1088.9" r="50" fill="blue" /> 
 <circle cx="850.154" cy="993.203" r="50" fill="blue" /> 
 <circle cx="887.725" cy="900.53" r="50" fill="blue" /> 
 <circle cx="975.196" cy="852.065" r="50" fill="blue" /> 
 <circle cx="1000" cy="1050" r="50" fill="blue" /> 
</svg>