<svg version="1.1" 
 baseProfile="full" 
 width="1000" height="1000" 
 xmlns="http://www.w3.org/2000/svg">
<rect width="100%" height="100%" fill="red" />
<polygon points="0,0 100,0 50,86.6025" style="fill:blue;stroke:pink;stroke-width:5" /> 
<polygon points="100,0 50,86.6025 150,86.6025" style="fill:blue;stroke:pink;stroke-width:5" /> 
<polygon points="100,0 200,0 150,86.6025" style="fill:blue;stroke:pink;stroke-width:5" /> 
<polygon points="200,0 150,86.6025 250,86.6025" style="fill:blue;stroke:pink;stroke-width:5" /> 
<polygon points="200,0 300,0 250,86.6025" style="fill:blue;stroke:pink;stroke-width:5" /> 
<polygon points="300,0 250,86.6025 350,86.6025" style="fill:blue;stroke:pink;stroke-width:5" /> 
<polygon points="300,0 400,0 350,86.6025" style="fill:blue;stroke:pink;stroke-width:5" /> 
<polygon points="400,0 350,86.6025 450,86.6025" style="fill:blue;stroke:pink;stroke-width:5" /> 
<polygon points="400,0 500,0 450,86.6025" style="fill:blue;stroke:pink;stroke-width:5" /> 
<polygon points="500,0 450,86.6025 550,86.6025" style="fill:blue;stroke:pink;stroke-width:5" /> 
<polygon points="500,0 600,0 550,86.6025" style="fill:blue;stroke:pink;stroke-width:5" /> 
<polygon points="600,0 550,86.6025 650,86.6025" style="fill:blue;stroke:pink;stroke-width:5" /> 
<polygon points="600,0 700,0 650,86.6025" style="fill:blue;stroke:pink;stroke-width:5" /> 
<polygon points="700,0 650,86.6025 750,86.6025" style="fill:blue;stroke:pink;stroke-width:5" /> 
<polygon points="700,0 800,0 750,86.6025" style="fill:blue;stroke:pink;stroke-width:5" /> 
<polygon points="800,0 750,86.6025 850,86.6025" style="fill:blue;stroke:pink;stroke-width:5" /> 
<polygon points="800,0 900,0 850,86.6025" style="fill:blue;stroke:pink;stroke-width:5" /> 
<polygon points="900,0 850,86.6025 950,86.6025" style="fill:blue;stroke:pink;stroke-width:5" /> 
<polygon points="900,0 1000,0 950,86.6025" style="fill:blue;stroke:pink;stroke-width:5" /> 
<polygon points="0,86.6025 100,86.6025 50,173.205" style="fill:blue;stroke:pink;stroke-width:5" /> 
<polygon points="100,86.6025 50,173.205 150,173.205" style="fill:blue;stroke:pink;stroke-width:5" /> 
<polygon points="100,86.6025 200,86.6025 150,173.205" style="fill:blue;stroke:pink;stroke-width:5" /> 
<polygon points="200,86.6025 150,173.205 250,173.205" style="fill:blue;stroke:pink;stroke-width:5" /> 
<polygon points="200,86.6025 300,86.6025 250,173.205" style="fill:blue;stroke:pink;stroke-width:5" /> 
<polygon points="300,86.6025 250,173.205 350,173.205" style="fill:blue;stroke:pink;stroke-width:5" /> 
<polygon points="300,86.6025 400,86.6025 350,173.205" style="fill:blue;stroke:pink;stroke-width:5" /> 
<polygon points="400,86.6025 350,173.205 450,173.205" style="fill:blue;stroke:pink;stroke-width:5" /> 
<polygon points="400,86.6025 500,86.6025 450,173.205" style="fill:blue;stroke:pink;stroke-width:5" /> 
<polygon points="500,86.6025 450,173.205 550,173.205" style="fill:blue;stroke:pink;stroke-width:5" /> 
<polygon points="500,86.6025 600,86.6025 550,173.205" style="fill:blue;stroke:pink;stroke-width:5" /> 
<polygon points="600,86.6025 550,173.205 650,173.205" style="fill:blue;stroke:pink;stroke-width:5" /> 
<polygon points="600,86.6025 700,86.6025 650,173.205" style="fill:blue;stroke:pink;stroke-width:5" /> 
<polygon points="700,86.6025 650,173.205 750,173.205" style="fill:blue;stroke:pink;stroke-width:5" /> 
<polygon points="700,86.6025 800,86.6025 750,173.205" style="fill:blue;stroke:pink;stroke-width:5" /> 
<polygon points="800,86.6025 750,173.205 850,173.205" style="fill:blue;stroke:pink;stroke-width:5" /> 
<polygon points="800,86.6025 900,86.6025 850,173.205" style="fill:blue;stroke:pink;stroke-width:5" /> 
<polygon points="900,86.6025 850,173.205 950,173.205" style="fill:blue;stroke:pink;stroke-width:5" /> 
<polygon points="900,86.6025 1000,86.6025 950,173.205" style="fill:blue;stroke:pink;stroke-width:5" /> 
<polygon points="0,173.205 100,173.205 50,259.808" style="fill:blue;stroke:pink;stroke-width:5" /> 
<polygon points="100,173.205 50,259.808 150,259.808" style="fill:blue;stroke:pink;stroke-width:5" /> 
<polygon points="100,173.205 200,173.205 150,259.808" style="fill:blue;stroke:pink;stroke-width:5" /> 
<polygon points="200,173.205 150,259.808 250,259.808" style="fill:blue;stroke:pink;stroke-width:5" /> 
<polygon points="200,173.205 300,173.205 250,259.808" style="fill:blue;stroke:pink;stroke-width:5" /> 
<polygon points="300,173.205 250,259.808 350,259.808" style="fill:blue;stroke:pink;stroke-width:5" /> 
<polygon points="300,173.205 400,173.205 350,259.808" style="fill:blue;stroke:pink;stroke-width:5" /> 
<polygon points="400,173.205 350,259.808 450,259.808" style="fill:blue;stroke:pink;stroke-width:5" /> 
<polygon points="400,173.205 500,173.205 450,259.808" style="fill:blue;stroke:pink;stroke-width:5" /> 
<polygon points="500,173.205 450,259.808 550,259.808" style="fill:blue;stroke:pink;stroke-width:5" /> 
<polygon points="500,173.205 600,173.205 550,259.808" style="fill:blue;stroke:pink;stroke-width:5" /> 
<polygon points="600,173.205 550,259.808 650,259.808" style="fill:blue;stroke:pink;stroke-width:5" /> 
<polygon points="600,173.205 700,173.205 650,259.808" style="fill:blue;stroke:pink;stroke-width:5" /> 
<polygon points="700,173.205 650,259.808 750,259.808" style="fill:blue;stroke:pink;stroke-width:5" /> 
<polygon points="700,173.205 800,173.205 750,259.808" style="fill:blue;stroke:pink;stroke-width:5" /> 
<polygon points="800,173.205 750,259.808 850,259.808" style="fill:blue;stroke:pink;stroke-width:5" /> 
<polygon points="800,173.205 900,173.205 850,259.808" style="fill:blue;stroke:pink;stroke-width:5" /> 
<polygon points="900,173.205 850,259.808 950,259.808" style="fill:blue;stroke:pink;stroke-width:5" /> 
<polygon points="900,173.205 1000,173.205 950,259.808" style="fill:blue;stroke:pink;stroke-width:5" /> 
<polygon points="0,259.808 100,259.808 50,346.41" style="fill:blue;stroke:pink;stroke-width:5" /> 
<polygon points="100,259.808 50,346.41 150,346.41" style="fill:blue;stroke:pink;stroke-width:5" /> 
<polygon points="100,259.808 200,259.808 150,346.41" style="fill:blue;stroke:pink;stroke-width:5" /> 
<polygon points="200,259.808 150,346.41 250,346.41" style="fill:blue;stroke:pink;stroke-width:5" /> 
<polygon points="200,259.808 300,259.808 250,346.41" style="fill:blue;stroke:pink;stroke-width:5" /> 
<polygon points="300,259.808 250,346.41 350,346.41" style="fill:blue;stroke:pink;stroke-width:5" /> 
<polygon points="300,259.808 400,259.808 350,346.41" style="fill:blue;stroke:pink;stroke-width:5" /> 
<polygon points="400,259.808 350,346.41 450,346.41" style="fill:blue;stroke:pink;stroke-width:5" /> 
<polygon points="400,259.808 500,259.808 450,346.41" style="fill:blue;stroke:pink;stroke-width:5" /> 
<polygon points="500,259.808 450,346.41 550,346.41" style="fill:blue;stroke:pink;stroke-width:5" /> 
<polygon points="500,259.808 600,259.808 550,346.41" style="fill:blue;stroke:pink;stroke-width:5" /> 
<polygon points="600,259.808 550,346.41 650,346.41" style="fill:blue;stroke:pink;stroke-width:5" /> 
<polygon points="600,259.808 700,259.808 650,346.41" style="fill:blue;stroke:pink;stroke-width:5" /> 
<polygon points="700,259.808 650,346.41 750,346.41" style="fill:blue;stroke:pink;stroke-width:5" /> 
<polygon points="700,259.808 800,259.808 750,346.41" style="fill:blue;stroke:pink;stroke-width:5" /> 
<polygon points="800,259.808 750,346.41 850,346.41" style="fill:blue;stroke:pink;stroke-width:5" /> 
<polygon points="800,259.808 900,259.808 850,346.41" style="fill:blue;stroke:pink;stroke-width:5" /> 
<polygon points="900,259.808 850,346.41 950,346.41" style="fill:blue;stroke:pink;stroke-width:5" /> 
<polygon points="900,259.808 1000,259.808 950,346.41" style="fill:blue;stroke:pink;stroke-width:5" /> 
<polygon points="0,346.41 100,346.41 50,433.013" style="fill:blue;stroke:pink;stroke-width:5" /> 
<polygon points="100,346.41 50,433.013 150,433.013" style="fill:blue;stroke:pink;stroke-width:5" /> 
<polygon points="100,346.41 200,346.41 150,433.013" style="fill:blue;stroke:pink;stroke-width:5" /> 
<polygon points="200,346.41 150,433.013 250,433.013" style="fill:blue;stroke:pink;stroke-width:5" /> 
<polygon points="200,346.41 300,346.41 250,433.013" style="fill:blue;stroke:pink;stroke-width:5" /> 
<polygon points="300,346.41 250,433.013 350,433.013" style="fill:blue;stroke:pink;stroke-width:5" /> 
<polygon points="300,346.41 400,346.41 350,433.013" style="fill:blue;stroke:pink;stroke-width:5" /> 
<polygon points="400,346.41 350,433.013 450,433.013" style="fill:blue;stroke:pink;stroke-width:5" /> 
<polygon points="400,346.41 500,346.41 450,433.013" style="fill:blue;stroke:pink;stroke-width:5" /> 
<polygon points="500,346.41 450,433.013 550,433.013" style="fill:blue;stroke:pink;stroke-width:5" /> 
<polygon points="500,346.41 600,346.41 550,433.013" style="fill:blue;stroke:pink;stroke-width:5" /> 
<polygon points="600,346.41 550,433.013 650,433.013" style="fill:blue;stroke:pink;stroke-width:5" /> 
<polygon points="600,346.41 700,346.41 650,433.013" style="fill:blue;stroke:pink;stroke-width:5" /> 
<polygon points="700,346.41 650,433.013 750,433.013" style="fill:blue;stroke:pink;stroke-width:5" /> 
<polygon points="700,346.41 800,346.41 750,433.013" style="fill:blue;stroke:pink;stroke-width:5" /> 
<polygon points="800,346.41 750,433.013 850,433.013" style="fill:blue;stroke:pink;stroke-width:5" /> 
<polygon points="800,346.41 900,346.41 850,433.013" style="fill:blue;stroke:pink;stroke-width:5" /> 
<polygon points="900,346.41 850,433.013 950,433.013" style="fill:blue;stroke:pink;stroke-width:5" /> 
<polygon points="900,346.41 1000,346.41 950,433.013" style="fill:blue;stroke:pink;stroke-width:5" /> 
<polygon points="0,433.013 100,433.013 50,519.615" style="fill:blue;stroke:pink;stroke-width:5" /> 
<polygon points="100,433.013 50,519.615 150,519.615" style="fill:blue;stroke:pink;stroke-width:5" /> 
<polygon points="100,433.013 200,433.013 150,519.615" style="fill:blue;stroke:pink;stroke-width:5" /> 
<polygon points="200,433.013 150,519.615 250,519.615" style="fill:blue;stroke:pink;stroke-width:5" /> 
<polygon points="200,433.013 300,433.013 250,519.615" style="fill:blue;stroke:pink;stroke-width:5" /> 
<polygon points="300,433.013 250,519.615 350,519.615" style="fill:blue;stroke:pink;stroke-width:5" /> 
<polygon points="300,433.013 400,433.013 350,519.615" style="fill:blue;stroke:pink;stroke-width:5" /> 
<polygon points="400,433.013 350,519.615 450,519.615" style="fill:blue;stroke:pink;stroke-width:5" /> 
<polygon points="400,433.013 500,433.013 450,519.615" style="fill:blue;stroke:pink;stroke-width:5" /> 
<polygon points="500,433.013 450,519.615 550,519.615" style="fill:blue;stroke:pink;stroke-width:5" /> 
<polygon points="500,433.013 600,433.013 550,519.615" style="fill:blue;stroke:pink;stroke-width:5" /> 
<polygon points="600,433.013 550,519.615 650,519.615" style="fill:blue;stroke:pink;stroke-width:5" /> 
<polygon points="600,433.013 700,433.013 650,519.615" style="fill:blue;stroke:pink;stroke-width:5" /> 
<polygon points="700,433.013 650,519.615 750,519.615" style="fill:blue;stroke:pink;stroke-width:5" /> 
<polygon points="700,433.013 800,433.013 750,519.615" style="fill:blue;stroke:pink;stroke-width:5" /> 
<polygon points="800,433.013 750,519.615 850,519.615" style="fill:blue;stroke:pink;stroke-width:5" /> 
<polygon points="800,433.013 900,433.013 850,519.615" style="fill:blue;stroke:pink;stroke-width:5" /> 
<polygon points="900,433.013 850,519.615 950,519.615" style="fill:blue;stroke:pink;stroke-width:5" /> 
<polygon points="900,433.013 1000,433.013 950,519.615" style="fill:blue;stroke:pink;stroke-width:5" /> 
<polygon points="0,519.615 100,519.615 50,606.218" style="fill:blue;stroke:pink;stroke-width:5" /> 
<polygon points="100,519.615 50,606.218 150,606.218" style="fill:blue;stroke:pink;stroke-width:5" /> 
<polygon points="100,519.615 200,519.615 150,606.218" style="fill:blue;stroke:pink;stroke-width:5" /> 
<polygon points="200,519.615 150,606.218 250,606.218" style="fill:blue;stroke:pink;stroke-width:5" /> 
<polygon points="200,519.615 300,519.615 250,606.218" style="fill:blue;stroke:pink;stroke-width:5" /> 
<polygon points="300,519.615 250,606.218 350,606.218" style="fill:blue;stroke:pink;stroke-width:5" /> 
<polygon points="300,519.615 400,519.615 350,606.218" style="fill:blue;stroke:pink;stroke-width:5" /> 
<polygon points="400,519.615 350,606.218 450,606.218" style="fill:blue;stroke:pink;stroke-width:5" /> 
<polygon points="400,519.615 500,519.615 450,606.218" style="fill:blue;stroke:pink;stroke-width:5" /> 
<polygon points="500,519.615 450,606.218 550,606.218" style="fill:blue;stroke:pink;stroke-width:5" /> 
<polygon points="500,519.615 600,519.615 550,606.218" style="fill:blue;stroke:pink;stroke-width:5" /> 
<polygon points="600,519.615 550,606.218 650,606.218" style="fill:blue;stroke:pink;stroke-width:5" /> 
<polygon points="600,519.615 700,519.615 650,606.218" style="fill:blue;stroke:pink;stroke-width:5" /> 
<polygon points="700,519.615 650,606.218 750,606.218" style="fill:blue;stroke:pink;stroke-width:5" /> 
<polygon points="700,519.615 800,519.615 750,606.218" style="fill:blue;stroke:pink;stroke-width:5" /> 
<polygon points="800,519.615 750,606.218 850,606.218" style="fill:blue;stroke:pink;stroke-width:5" /> 
<polygon points="800,519.615 900,519.615 850,606.218" style="fill:blue;stroke:pink;stroke-width:5" /> 
<polygon points="900,519.615 850,606.218 950,606.218" style="fill:blue;stroke:pink;stroke-width:5" /> 
<polygon points="900,519.615 1000,519.615 950,606.218" style="fill:blue;stroke:pink;stroke-width:5" /> 
<polygon points="0,606.218 100,606.218 50,692.82" style="fill:blue;stroke:pink;stroke-width:5" /> 
<polygon points="100,606.218 50,692.82 150,692.82" style="fill:blue;stroke:pink;stroke-width:5" /> 
<polygon points="100,606.218 200,606.218 150,692.82" style="fill:blue;stroke:pink;stroke-width:5" /> 
<polygon points="200,606.218 150,692.82 250,692.82" style="fill:blue;stroke:pink;stroke-width:5" /> 
<polygon points="200,606.218 300,606.218 250,692.82" style="fill:blue;stroke:pink;stroke-width:5" /> 
<polygon points="300,606.218 250,692.82 350,692.82" style="fill:blue;stroke:pink;stroke-width:5" /> 
<polygon points="300,606.218 400,606.218 350,692.82" style="fill:blue;stroke:pink;stroke-width:5" /> 
<polygon points="400,606.218 350,692.82 450,692.82" style="fill:blue;stroke:pink;stroke-width:5" /> 
<polygon points="400,606.218 500,606.218 450,692.82" style="fill:blue;stroke:pink;stroke-width:5" /> 
<polygon points="500,606.218 450,692.82 550,692.82" style="fill:blue;stroke:pink;stroke-width:5" /> 
<polygon points="500,606.218 600,606.218 550,692.82" style="fill:blue;stroke:pink;stroke-width:5" /> 
<polygon points="600,606.218 550,692.82 650,692.82" style="fill:blue;stroke:pink;stroke-width:5" /> 
<polygon points="600,606.218 700,606.218 650,692.82" style="fill:blue;stroke:pink;stroke-width:5" /> 
<polygon points="700,606.218 650,692.82 750,692.82" style="fill:blue;stroke:pink;stroke-width:5" /> 
<polygon points="700,606.218 800,606.218 750,692.82" style="fill:blue;stroke:pink;stroke-width:5" /> 
<polygon points="800,606.218 750,692.82 850,692.82" style="fill:blue;stroke:pink;stroke-width:5" /> 
<polygon points="800,606.218 900,606.218 850,692.82" style="fill:blue;stroke:pink;stroke-width:5" /> 
<polygon points="900,606.218 850,692.82 950,692.82" style="fill:blue;stroke:pink;stroke-width:5" /> 
<polygon points="900,606.218 1000,606.218 950,692.82" style="fill:blue;stroke:pink;stroke-width:5" /> 
<polygon points="0,692.82 100,692.82 50,779.423" style="fill:blue;stroke:pink;stroke-width:5" /> 
<polygon points="100,692.82 50,779.423 150,779.423" style="fill:blue;stroke:pink;stroke-width:5" /> 
<polygon points="100,692.82 200,692.82 150,779.423" style="fill:blue;stroke:pink;stroke-width:5" /> 
<polygon points="200,692.82 150,779.423 250,779.423" style="fill:blue;stroke:pink;stroke-width:5" /> 
<polygon points="200,692.82 300,692.82 250,779.423" style="fill:blue;stroke:pink;stroke-width:5" /> 
<polygon points="300,692.82 250,779.423 350,779.423" style="fill:blue;stroke:pink;stroke-width:5" /> 
<polygon points="300,692.82 400,692.82 350,779.423" style="fill:blue;stroke:pink;stroke-width:5" /> 
<polygon points="400,692.82 350,779.423 450,779.423" style="fill:blue;stroke:pink;stroke-width:5" /> 
<polygon points="400,692.82 500,692.82 450,779.423" style="fill:blue;stroke:pink;stroke-width:5" /> 
<polygon points="500,692.82 450,779.423 550,779.423" style="fill:blue;stroke:pink;stroke-width:5" /> 
<polygon points="500,692.82 600,692.82 550,779.423" style="fill:blue;stroke:pink;stroke-width:5" /> 
<polygon points="600,692.82 550,779.423 650,779.423" style="fill:blue;stroke:pink;stroke-width:5" /> 
<polygon points="600,692.82 700,692.82 650,779.423" style="fill:blue;stroke:pink;stroke-width:5" /> 
<polygon points="700,692.82 650,779.423 750,779.423" style="fill:blue;stroke:pink;stroke-width:5" /> 
<polygon points="700,692.82 800,692.82 750,779.423" style="fill:blue;stroke:pink;stroke-width:5" /> 
<polygon points="800,692.82 750,779.423 850,779.423" style="fill:blue;stroke:pink;stroke-width:5" /> 
<polygon points="800,692.82 900,692.82 850,779.423" style="fill:blue;stroke:pink;stroke-width:5" /> 
<polygon points="900,692.82 850,779.423 950,779.423" style="fill:blue;stroke:pink;stroke-width:5" /> 
<polygon points="900,692.82 1000,692.82 950,779.423" style="fill:blue;stroke:pink;stroke-width:5" /> 
<polygon points="0,779.423 100,779.423 50,866.025" style="fill:blue;stroke:pink;stroke-width:5" /> 
<polygon points="100,779.423 50,866.025 150,866.025" style="fill:blue;stroke:pink;stroke-width:5" /> 
<polygon points="100,779.423 200,779.423 150,866.025" style="fill:blue;stroke:pink;stroke-width:5" /> 
<polygon points="200,779.423 150,866.025 250,866.025" style="fill:blue;stroke:pink;stroke-width:5" /> 
<polygon points="200,779.423 300,779.423 250,866.025" style="fill:blue;stroke:pink;stroke-width:5" /> 
<polygon points="300,779.423 250,866.025 350,866.025" style="fill:blue;stroke:pink;stroke-width:5" /> 
<polygon points="300,779.423 400,779.423 350,866.025" style="fill:blue;stroke:pink;stroke-width:5" /> 
<polygon points="400,779.423 350,866.025 450,866.025" style="fill:blue;stroke:pink;stroke-width:5" /> 
<polygon points="400,779.423 500,779.423 450,866.025" style="fill:blue;stroke:pink;stroke-width:5" /> 
<polygon points="500,779.423 450,866.025 550,866.025" style="fill:blue;stroke:pink;stroke-width:5" /> 
<polygon points="500,779.423 600,779.423 550,866.025" style="fill:blue;stroke:pink;stroke-width:5" /> 
<polygon points="600,779.423 550,866.025 650,866.025" style="fill:blue;stroke:pink;stroke-width:5" /> 
<polygon points="600,779.423 700,779.423 650,866.025" style="fill:blue;stroke:pink;stroke-width:5" /> 
<polygon points="700,779.423 650,866.025 750,866.025" style="fill:blue;stroke:pink;stroke-width:5" /> 
<polygon points="700,779.423 800,779.423 750,866.025" style="fill:blue;stroke:pink;stroke-width:5" /> 
<polygon points="800,779.423 750,866.025 850,866.025" style="fill:blue;stroke:pink;stroke-width:5" /> 
<polygon points="800,779.423 900,779.423 850,866.025" style="fill:blue;stroke:pink;stroke-width:5" /> 
<polygon points="900,779.423 850,866.025 950,866.025" style="fill:blue;stroke:pink;stroke-width:5" /> 
<polygon points="900,779.423 1000,779.423 950,866.025" style="fill:blue;stroke:pink;stroke-width:5" /> 
<polygon points="0,866.025 100,866.025 50,952.628" style="fill:blue;stroke:pink;stroke-width:5" /> 
<polygon points="100,866.025 50,952.628 150,952.628" style="fill:blue;stroke:pink;stroke-width:5" /> 
<polygon points="100,866.025 200,866.025 150,952.628" style="fill:blue;stroke:pink;stroke-width:5" /> 
<polygon points="200,866.025 150,952.628 250,952.628" style="fill:blue;stroke:pink;stroke-width:5" /> 
<polygon points="200,866.025 300,866.025 250,952.628" style="fill:blue;stroke:pink;stroke-width:5" /> 
<polygon points="300,866.025 250,952.628 350,952.628" style="fill:blue;stroke:pink;stroke-width:5" /> 
<polygon points="300,866.025 400,866.025 350,952.628" style="fill:blue;stroke:pink;stroke-width:5" /> 
<polygon points="400,866.025 350,952.628 450,952.628" style="fill:blue;stroke:pink;stroke-width:5" /> 
<polygon points="400,866.025 500,866.025 450,952.628" style="fill:blue;stroke:pink;stroke-width:5" /> 
<polygon points="500,866.025 450,952.628 550,952.628" style="fill:blue;stroke:pink;stroke-width:5" /> 
<polygon points="500,866.025 600,866.025 550,952.628" style="fill:blue;stroke:pink;stroke-width:5" /> 
<polygon points="600,866.025 550,952.628 650,952.628" style="fill:blue;stroke:pink;stroke-width:5" /> 
<polygon points="600,866.025 700,866.025 650,952.628" style="fill:blue;stroke:pink;stroke-width:5" /> 
<polygon points="700,866.025 650,952.628 750,952.628" style="fill:blue;stroke:pink;stroke-width:5" /> 
<polygon points="700,866.025 800,866.025 750,952.628" style="fill:blue;stroke:pink;stroke-width:5" /> 
<polygon points="800,866.025 750,952.628 850,952.628" style="fill:blue;stroke:pink;stroke-width:5" /> 
<polygon points="800,866.025 900,866.025 850,952.628" style="fill:blue;stroke:pink;stroke-width:5" /> 
<polygon points="900,866.025 850,952.628 950,952.628" style="fill:blue;stroke:pink;stroke-width:5" /> 
<polygon points="900,866.025 1000,866.025 950,952.628" style="fill:blue;stroke:pink;stroke-width:5" /> 
</svg>