<svg version="1.1" 
 baseProfile="full" 
 width="2000" height="2000" 
 xmlns="http://www.w3.org/2000/svg">
<rect x="0" y="0" width="300" height="300" fill="blue" style="fill:blue;stroke:pink;stroke-width:5"/>
<rect x="300" y="0" width="300" height="300" fill="blue" style="fill:blue;stroke:pink;stroke-width:5"/>
<rect x="600" y="0" width="300" height="300" fill="blue" style="fill:blue;stroke:pink;stroke-width:5"/>
<rect x="900" y="0" width="300" height="300" fill="blue" style="fill:blue;stroke:pink;stroke-width:5"/>
<rect x="1200" y="0" width="300" height="300" fill="blue" style="fill:blue;stroke:pink;stroke-width:5"/>
<rect x="1500" y="0" width="300" height="300" fill="blue" style="fill:blue;stroke:pink;stroke-width:5"/>
<rect x="0" y="300" width="300" height="300" fill="blue" style="fill:blue;stroke:pink;stroke-width:5"/>
<rect x="300" y="300" width="300" height="300" fill="blue" style="fill:blue;stroke:pink;stroke-width:5"/>
<rect x="600" y="300" width="300" height="300" fill="blue" style="fill:blue;stroke:pink;stroke-width:5"/>
<rect x="900" y="300" width="300" height="300" fill="blue" style="fill:blue;stroke:pink;stroke-width:5"/>
<rect x="1200" y="300" width="300" height="300" fill="blue" style="fill:blue;stroke:pink;stroke-width:5"/>
<rect x="1500" y="300" width="300" height="300" fill="blue" style="fill:blue;stroke:pink;stroke-width:5"/>
<rect x="0" y="600" width="300" height="300" fill="blue" style="fill:blue;stroke:pink;stroke-width:5"/>
<rect x="300" y="600" width="300" height="300" fill="blue" style="fill:blue;stroke:pink;stroke-width:5"/>
<rect x="600" y="600" width="300" height="300" fill="blue" style="fill:blue;stroke:pink;stroke-width:5"/>
<rect x="900" y="600" width="300" height="300" fill="blue" style="fill:blue;stroke:pink;stroke-width:5"/>
<rect x="1200" y="600" width="300" height="300" fill="blue" style="fill:blue;stroke:pink;stroke-width:5"/>
<rect x="1500" y="600" width="300" height="300" fill="blue" style="fill:blue;stroke:pink;stroke-width:5"/>
<rect x="0" y="900" width="300" height="300" fill="blue" style="fill:blue;stroke:pink;stroke-width:5"/>
<rect x="300" y="900" width="300" height="300" fill="blue" style="fill:blue;stroke:pink;stroke-width:5"/>
<rect x="600" y="900" width="300" height="300" fill="blue" style="fill:blue;stroke:pink;stroke-width:5"/>
<rect x="900" y="900" width="300" height="300" fill="blue" style="fill:blue;stroke:pink;stroke-width:5"/>
<rect x="1200" y="900" width="300" height="300" fill="blue" style="fill:blue;stroke:pink;stroke-width:5"/>
<rect x="1500" y="900" width="300" height="300" fill="blue" style="fill:blue;stroke:pink;stroke-width:5"/>
<rect x="0" y="1200" width="300" height="300" fill="blue" style="fill:blue;stroke:pink;stroke-width:5"/>
<rect x="300" y="1200" width="300" height="300" fill="blue" style="fill:blue;stroke:pink;stroke-width:5"/>
<rect x="600" y="1200" width="300" height="300" fill="blue" style="fill:blue;stroke:pink;stroke-width:5"/>
<rect x="900" y="1200" width="300" height="300" fill="blue" style="fill:blue;stroke:pink;stroke-width:5"/>
<rect x="1200" y="1200" width="300" height="300" fill="blue" style="fill:blue;stroke:pink;stroke-width:5"/>
<rect x="1500" y="1200" width="300" height="300" fill="blue" style="fill:blue;stroke:pink;stroke-width:5"/>
<rect x="0" y="1500" width="300" height="300" fill="blue" style="fill:blue;stroke:pink;stroke-width:5"/>
<rect x="300" y="1500" width="300" height="300" fill="blue" style="fill:blue;stroke:pink;stroke-width:5"/>
<rect x="600" y="1500" width="300" height="300" fill="blue" style="fill:blue;stroke:pink;stroke-width:5"/>
<rect x="900" y="1500" width="300" height="300" fill="blue" style="fill:blue;stroke:pink;stroke-width:5"/>
<rect x="1200" y="1500" width="300" height="300" fill="blue" style="fill:blue;stroke:pink;stroke-width:5"/>
<rect x="1500" y="1500" width="300" height="300" fill="blue" style="fill:blue;stroke:pink;stroke-width:5"/>
</svg>